<svg width="57" height="11" viewBox="0 0 57 11" fill="none" xmlns="http://www.w3.org/2000/svg">
<path d="M6.736 7.568H2.832L2.048 10.016C1.952 10.0587 1.85067 10.0907 1.744 10.112C1.63733 10.1333 1.50933 10.144 1.36 10.144C1.09333 10.144 0.874667 10.0853 0.704 9.968C0.533333 9.85067 0.448 9.67467 0.448 9.44C0.448 9.32267 0.464 9.21067 0.496 9.104C0.528 8.98667 0.570667 8.85867 0.624 8.72C0.762667 8.272 0.954667 7.696 1.2 6.992C1.456 6.27733 1.72267 5.52533 2 4.736C2.288 3.94667 2.576 3.17333 2.864 2.416C3.152 1.648 3.40267 0.992 3.616 0.448C3.72267 0.384 3.888 0.325333 4.112 0.271999C4.336 0.208 4.56533 0.176 4.8 0.176C5.10933 0.176 5.38667 0.218666 5.632 0.304C5.87733 0.389333 6.04267 0.538666 6.128 0.752C6.36267 1.36 6.61867 2.05333 6.896 2.832C7.17333 3.6 7.45067 4.39467 7.728 5.216C8.00533 6.03733 8.272 6.84267 8.528 7.632C8.784 8.42133 9.01333 9.136 9.216 9.776C9.12 9.88267 8.992 9.968 8.832 10.032C8.68267 10.1067 8.50133 10.144 8.288 10.144C8 10.144 7.792 10.0907 7.664 9.984C7.536 9.86667 7.42933 9.67467 7.344 9.408L6.736 7.568ZM4.784 1.664C4.67733 1.952 4.56 2.27733 4.432 2.64C4.304 3.00267 4.17067 3.38667 4.032 3.792C3.89333 4.18667 3.75467 4.592 3.616 5.008C3.47733 5.41333 3.344 5.808 3.216 6.192H6.368C6.22933 5.76533 6.08533 5.33867 5.936 4.912C5.79733 4.47467 5.65867 4.05867 5.52 3.664C5.392 3.26933 5.26933 2.90133 5.152 2.56C5.03467 2.208 4.93867 1.90933 4.864 1.664H4.784ZM14.3934 3.648C14.052 3.648 13.7374 3.70667 13.4494 3.824C13.1614 3.93067 12.9107 4.096 12.6974 4.32C12.4947 4.544 12.3294 4.82133 12.2014 5.152C12.084 5.472 12.0254 5.84533 12.0254 6.272C12.0254 7.11467 12.244 7.76 12.6814 8.208C13.1187 8.64533 13.6894 8.864 14.3934 8.864C14.7987 8.864 15.1454 8.81067 15.4334 8.704C15.7214 8.59733 15.972 8.46933 16.1854 8.32C16.324 8.40533 16.436 8.50667 16.5214 8.624C16.6067 8.74133 16.6494 8.88533 16.6494 9.056C16.6494 9.38667 16.4307 9.664 15.9934 9.888C15.5667 10.112 15.0014 10.224 14.2974 10.224C13.7107 10.224 13.172 10.144 12.6814 9.984C12.2014 9.824 11.7854 9.57867 11.4334 9.248C11.0814 8.91733 10.804 8.50667 10.6014 8.016C10.4094 7.51467 10.3134 6.93333 10.3134 6.272C10.3134 5.61067 10.4147 5.02933 10.6174 4.528C10.8307 4.02667 11.1134 3.61067 11.4654 3.28C11.828 2.94933 12.2494 2.704 12.7294 2.544C13.2094 2.37333 13.716 2.288 14.2494 2.288C14.6014 2.288 14.916 2.32 15.1934 2.384C15.4814 2.448 15.7267 2.53867 15.9294 2.656C16.132 2.76267 16.2867 2.89067 16.3934 3.04C16.5107 3.17867 16.5694 3.328 16.5694 3.488C16.5694 3.63733 16.5267 3.776 16.4414 3.904C16.3667 4.02133 16.2707 4.112 16.1534 4.176C15.9294 4.03733 15.6787 3.91467 15.4014 3.808C15.1347 3.70133 14.7987 3.648 14.3934 3.648ZM21.8934 3.648C21.552 3.648 21.2374 3.70667 20.9494 3.824C20.6614 3.93067 20.4107 4.096 20.1974 4.32C19.9947 4.544 19.8294 4.82133 19.7014 5.152C19.584 5.472 19.5254 5.84533 19.5254 6.272C19.5254 7.11467 19.744 7.76 20.1814 8.208C20.6187 8.64533 21.1894 8.864 21.8934 8.864C22.2987 8.864 22.6454 8.81067 22.9334 8.704C23.2214 8.59733 23.472 8.46933 23.6854 8.32C23.824 8.40533 23.936 8.50667 24.0214 8.624C24.1067 8.74133 24.1494 8.88533 24.1494 9.056C24.1494 9.38667 23.9307 9.664 23.4934 9.888C23.0667 10.112 22.5014 10.224 21.7974 10.224C21.2107 10.224 20.672 10.144 20.1814 9.984C19.7014 9.824 19.2854 9.57867 18.9334 9.248C18.5814 8.91733 18.304 8.50667 18.1014 8.016C17.9094 7.51467 17.8134 6.93333 17.8134 6.272C17.8134 5.61067 17.9147 5.02933 18.1174 4.528C18.3307 4.02667 18.6134 3.61067 18.9654 3.28C19.328 2.94933 19.7494 2.704 20.2294 2.544C20.7094 2.37333 21.216 2.288 21.7494 2.288C22.1014 2.288 22.416 2.32 22.6934 2.384C22.9814 2.448 23.2267 2.53867 23.4294 2.656C23.632 2.76267 23.7867 2.89067 23.8934 3.04C24.0107 3.17867 24.0694 3.328 24.0694 3.488C24.0694 3.63733 24.0267 3.776 23.9414 3.904C23.8667 4.02133 23.7707 4.112 23.6534 4.176C23.4294 4.03733 23.1787 3.91467 22.9014 3.808C22.6347 3.70133 22.2987 3.648 21.8934 3.648ZM32.8974 6.256C32.8974 6.864 32.8067 7.41333 32.6254 7.904C32.444 8.39467 32.188 8.81067 31.8574 9.152C31.5374 9.49333 31.1427 9.76 30.6734 9.952C30.204 10.1333 29.6814 10.224 29.1054 10.224C28.5294 10.224 28.0067 10.1333 27.5374 9.952C27.068 9.76 26.668 9.49333 26.3374 9.152C26.0174 8.81067 25.7667 8.39467 25.5854 7.904C25.404 7.41333 25.3134 6.864 25.3134 6.256C25.3134 5.648 25.404 5.09867 25.5854 4.608C25.7667 4.11733 26.0227 3.70133 26.3534 3.36C26.684 3.01867 27.084 2.75733 27.5534 2.576C28.0227 2.384 28.54 2.288 29.1054 2.288C29.6707 2.288 30.188 2.384 30.6574 2.576C31.1267 2.75733 31.5267 3.024 31.8574 3.376C32.188 3.71733 32.444 4.13333 32.6254 4.624C32.8067 5.104 32.8974 5.648 32.8974 6.256ZM29.1054 3.632C28.4654 3.632 27.9587 3.86133 27.5854 4.32C27.212 4.77867 27.0254 5.424 27.0254 6.256C27.0254 7.088 27.2067 7.73333 27.5694 8.192C27.932 8.64 28.444 8.864 29.1054 8.864C29.7667 8.864 30.2787 8.64 30.6414 8.192C31.004 7.73333 31.1854 7.088 31.1854 6.256C31.1854 5.43467 30.9987 4.79467 30.6254 4.336C30.2627 3.86667 29.756 3.632 29.1054 3.632ZM34.6978 2.528C34.7724 2.50667 34.8791 2.48533 35.0178 2.464C35.1564 2.432 35.3058 2.416 35.4658 2.416C35.7751 2.416 35.9991 2.47467 36.1378 2.592C36.2871 2.70933 36.3618 2.912 36.3618 3.2V7.152C36.3618 7.77067 36.5218 8.21333 36.8418 8.48C37.1724 8.736 37.6258 8.864 38.2018 8.864C38.5751 8.864 38.8898 8.82667 39.1458 8.752C39.4018 8.67733 39.6044 8.59733 39.7538 8.512V2.528C39.8391 2.50667 39.9458 2.48533 40.0738 2.464C40.2124 2.432 40.3618 2.416 40.5218 2.416C40.8311 2.416 41.0604 2.47467 41.2098 2.592C41.3591 2.70933 41.4338 2.912 41.4338 3.2V8.592C41.4338 8.82667 41.3964 9.01867 41.3218 9.168C41.2471 9.31733 41.0978 9.46133 40.8738 9.6C40.5964 9.76 40.2284 9.904 39.7698 10.032C39.3218 10.16 38.7938 10.224 38.1858 10.224C37.0871 10.224 36.2284 9.984 35.6098 9.504C35.0018 9.01333 34.6978 8.24 34.6978 7.184V2.528ZM48.6913 5.152C48.6913 4.62933 48.5419 4.24533 48.2433 4C47.9553 3.75467 47.5606 3.632 47.0593 3.632C46.6859 3.632 46.3499 3.68 46.0513 3.776C45.7633 3.872 45.5126 3.97867 45.2993 4.096V9.968C45.2246 10 45.1179 10.0267 44.9793 10.048C44.8513 10.08 44.7073 10.096 44.5473 10.096C44.2379 10.096 44.0086 10.0373 43.8593 9.92C43.7099 9.80267 43.6353 9.60533 43.6353 9.328V4.048C43.6353 3.80267 43.6833 3.60533 43.7793 3.456C43.8753 3.30667 44.0353 3.15733 44.2593 3.008C44.5579 2.82667 44.9473 2.66133 45.4273 2.512C45.9073 2.36267 46.4513 2.288 47.0593 2.288C48.0939 2.288 48.9046 2.52267 49.4913 2.992C50.0779 3.45067 50.3713 4.14933 50.3713 5.088V9.968C50.2966 10 50.1899 10.0267 50.0513 10.048C49.9126 10.08 49.7633 10.096 49.6033 10.096C49.2939 10.096 49.0646 10.0373 48.9153 9.92C48.7659 9.80267 48.6913 9.60533 48.6913 9.328V5.152ZM54.2528 7.808C54.2528 8.192 54.3648 8.464 54.5888 8.624C54.8128 8.784 55.1274 8.864 55.5328 8.864C55.7141 8.864 55.9061 8.83733 56.1088 8.784C56.3114 8.73067 56.4874 8.66667 56.6368 8.592C56.7114 8.67733 56.7754 8.77333 56.8288 8.88C56.8928 8.98667 56.9248 9.11467 56.9248 9.264C56.9248 9.54133 56.7808 9.77067 56.4928 9.952C56.2154 10.1333 55.7888 10.224 55.2128 10.224C54.4128 10.224 53.7728 10.048 53.2928 9.696C52.8234 9.33333 52.5888 8.74133 52.5888 7.92V0.448C52.6634 0.426666 52.7701 0.399999 52.9088 0.367999C53.0474 0.335999 53.1968 0.32 53.3568 0.32C53.6661 0.32 53.8901 0.378666 54.0288 0.495999C54.1781 0.613333 54.2528 0.810666 54.2528 1.088V2.672H56.7328C56.7754 2.736 56.8128 2.82667 56.8448 2.944C56.8874 3.06133 56.9088 3.184 56.9088 3.312C56.9088 3.77067 56.7114 4 56.3168 4H54.2528V7.808Z" fill="#18333E"/>
</svg>
