<svg width="91" height="14" viewBox="0 0 91 14" fill="none" xmlns="http://www.w3.org/2000/svg">
<path d="M8.328 11.776C8.21067 11.872 8.06133 11.952 7.88 12.016C7.69867 12.08 7.48533 12.112 7.24 12.112C6.94133 12.112 6.68 12.0587 6.456 11.952C6.24267 11.8347 6.04533 11.6213 5.864 11.312L3.224 6.72C3.10667 6.51733 2.984 6.304 2.856 6.08C2.73867 5.856 2.62133 5.632 2.504 5.408C2.39733 5.184 2.29067 4.97067 2.184 4.768C2.088 4.55467 2.00267 4.368 1.928 4.208L1.848 4.224C1.90133 4.77867 1.93867 5.376 1.96 6.016C1.98133 6.64533 1.992 7.24267 1.992 7.808V11.984C1.91733 12.0053 1.80533 12.0267 1.656 12.048C1.51733 12.08 1.37333 12.096 1.224 12.096C0.904 12.096 0.669333 12.0373 0.52 11.92C0.381333 11.8027 0.312 11.6053 0.312 11.328V2.56C0.418667 2.44267 0.568 2.352 0.76 2.288C0.962667 2.21333 1.176 2.176 1.4 2.176C1.69867 2.176 1.96 2.22933 2.184 2.336C2.408 2.44267 2.61067 2.65067 2.792 2.96L5.448 7.568C5.56533 7.77067 5.68267 7.984 5.8 8.208C5.91733 8.432 6.02933 8.656 6.136 8.88C6.25333 9.104 6.36 9.32267 6.456 9.536C6.56267 9.73867 6.65333 9.92 6.728 10.08L6.792 10.064C6.70667 9.25333 6.65867 8.45333 6.648 7.664C6.63733 6.864 6.632 6.08533 6.632 5.328V2.288C6.71733 2.26667 6.82933 2.24533 6.968 2.224C7.10667 2.192 7.256 2.176 7.416 2.176C7.736 2.176 7.96533 2.23467 8.104 2.352C8.25333 2.46933 8.328 2.66667 8.328 2.944V11.776ZM12.0406 9.104C12.19 9.712 12.478 10.1653 12.9046 10.464C13.342 10.752 13.8966 10.896 14.5686 10.896C15.0166 10.896 15.4273 10.8267 15.8006 10.688C16.174 10.5493 16.4726 10.4 16.6966 10.24C16.9953 10.4107 17.1446 10.6507 17.1446 10.96C17.1446 11.1413 17.0753 11.312 16.9366 11.472C16.798 11.6213 16.606 11.7547 16.3606 11.872C16.126 11.9787 15.8433 12.064 15.5126 12.128C15.1926 12.192 14.846 12.224 14.4726 12.224C13.854 12.224 13.2886 12.1387 12.7766 11.968C12.2753 11.7973 11.8433 11.5413 11.4806 11.2C11.118 10.8587 10.8353 10.4373 10.6326 9.936C10.4406 9.43467 10.3446 8.85333 10.3446 8.192C10.3446 7.552 10.4406 6.992 10.6326 6.512C10.8246 6.02133 11.086 5.616 11.4166 5.296C11.7473 4.96533 12.1366 4.71467 12.5846 4.544C13.0326 4.37333 13.5126 4.288 14.0246 4.288C14.5366 4.288 15.0006 4.37333 15.4166 4.544C15.8433 4.704 16.206 4.93333 16.5046 5.232C16.814 5.52 17.0486 5.86667 17.2086 6.272C17.3793 6.67733 17.4646 7.12 17.4646 7.6C17.4646 7.86667 17.4006 8.064 17.2726 8.192C17.1446 8.30933 16.958 8.38933 16.7126 8.432L12.0406 9.104ZM14.0246 5.584C13.438 5.584 12.9473 5.78133 12.5526 6.176C12.1686 6.57067 11.966 7.136 11.9446 7.872L15.8806 7.312C15.838 6.832 15.662 6.42667 15.3526 6.096C15.0433 5.75467 14.6006 5.584 14.0246 5.584ZM23.9844 6.816C23.8564 7.28533 23.7177 7.76 23.5684 8.24C23.4297 8.70933 23.2857 9.168 23.1364 9.616C22.9977 10.064 22.859 10.48 22.7204 10.864C22.5924 11.248 22.475 11.584 22.3684 11.872C22.2617 11.9467 22.1337 12.0053 21.9844 12.048C21.835 12.0907 21.6484 12.112 21.4244 12.112C21.179 12.112 20.9604 12.0747 20.7684 12C20.5764 11.9253 20.4484 11.808 20.3844 11.648C20.2564 11.392 20.107 10.9813 19.9364 10.416C19.7657 9.85067 19.595 9.232 19.4244 8.56C19.2537 7.888 19.0884 7.21067 18.9284 6.528C18.7684 5.84533 18.6404 5.248 18.5444 4.736C18.6297 4.64 18.747 4.55467 18.8964 4.48C19.0564 4.39467 19.2324 4.352 19.4244 4.352C19.9044 4.352 20.1924 4.624 20.2884 5.168C20.3844 5.712 20.4857 6.26133 20.5924 6.816C20.7097 7.37067 20.8217 7.89333 20.9284 8.384C21.035 8.864 21.131 9.296 21.2164 9.68C21.3124 10.0533 21.3817 10.336 21.4244 10.528H21.4884C21.5417 10.336 21.6217 10.0587 21.7284 9.696C21.8457 9.32267 21.9737 8.90133 22.1124 8.432C22.2617 7.952 22.4217 7.44 22.5924 6.896C22.763 6.34133 22.939 5.792 23.1204 5.248C23.3657 5.09867 23.659 5.024 24.0004 5.024C24.2457 5.024 24.4484 5.06667 24.6084 5.152C24.779 5.23733 24.891 5.36 24.9444 5.52C25.115 6.05333 25.2804 6.58133 25.4404 7.104C25.6004 7.616 25.7444 8.096 25.8724 8.544C26.011 8.992 26.1284 9.38667 26.2244 9.728C26.331 10.0693 26.411 10.336 26.4644 10.528H26.5444C26.7577 9.61067 26.9817 8.64 27.2164 7.616C27.451 6.592 27.6484 5.568 27.8084 4.544C27.915 4.49067 28.0324 4.448 28.1604 4.416C28.2884 4.37333 28.4164 4.352 28.5444 4.352C28.779 4.352 28.9657 4.40533 29.1044 4.512C29.2537 4.61867 29.3284 4.78933 29.3284 5.024C29.3284 5.16267 29.2964 5.39733 29.2324 5.728C29.1684 6.05867 29.0777 6.448 28.9604 6.896C28.8537 7.33333 28.731 7.80267 28.5924 8.304C28.4644 8.79467 28.331 9.26933 28.1924 9.728C28.0644 10.1867 27.9364 10.608 27.8084 10.992C27.6804 11.376 27.5737 11.6693 27.4884 11.872C27.403 11.936 27.275 11.9893 27.1044 12.032C26.9337 12.0853 26.7417 12.112 26.5284 12.112C25.963 12.112 25.6324 11.9787 25.5364 11.712C25.4404 11.456 25.3284 11.1413 25.2004 10.768C25.0724 10.3947 24.939 9.99467 24.8004 9.568C24.6617 9.13067 24.523 8.67733 24.3844 8.208C24.2457 7.73867 24.1124 7.27467 23.9844 6.816ZM41.669 2.912C41.669 3.14667 41.4023 3.744 40.869 4.704C40.3357 5.65333 39.5517 6.91733 38.517 8.496V11.968C38.4317 12 38.3143 12.0267 38.165 12.048C38.0263 12.08 37.8823 12.096 37.733 12.096C37.4023 12.096 37.1677 12.0373 37.029 11.92C36.8903 11.792 36.821 11.5893 36.821 11.312V8.512C36.533 8.08533 36.229 7.62667 35.909 7.136C35.589 6.63467 35.2743 6.13333 34.965 5.632C34.6557 5.12 34.3623 4.624 34.085 4.144C33.8183 3.65333 33.589 3.2 33.397 2.784C33.461 2.63467 33.5677 2.50133 33.717 2.384C33.8663 2.256 34.0637 2.192 34.309 2.192C34.565 2.192 34.7677 2.256 34.917 2.384C35.0663 2.50133 35.221 2.704 35.381 2.992C35.509 3.216 35.6743 3.51467 35.877 3.888C36.0797 4.26133 36.293 4.65067 36.517 5.056C36.741 5.45067 36.9543 5.82933 37.157 6.192C37.3597 6.544 37.5197 6.816 37.637 7.008H37.701C37.9357 6.58133 38.1597 6.176 38.373 5.792C38.5863 5.39733 38.789 5.01333 38.981 4.64C39.173 4.26667 39.365 3.89333 39.557 3.52C39.749 3.14667 39.941 2.76267 40.133 2.368C40.229 2.31467 40.341 2.272 40.469 2.24C40.6077 2.208 40.7357 2.192 40.853 2.192C41.0983 2.192 41.2957 2.256 41.445 2.384C41.5943 2.512 41.669 2.688 41.669 2.912ZM49.538 8.256C49.538 8.864 49.4473 9.41333 49.266 9.904C49.0847 10.3947 48.8287 10.8107 48.498 11.152C48.178 11.4933 47.7833 11.76 47.314 11.952C46.8447 12.1333 46.322 12.224 45.746 12.224C45.17 12.224 44.6473 12.1333 44.178 11.952C43.7087 11.76 43.3087 11.4933 42.978 11.152C42.658 10.8107 42.4073 10.3947 42.226 9.904C42.0447 9.41333 41.954 8.864 41.954 8.256C41.954 7.648 42.0447 7.09867 42.226 6.608C42.4073 6.11733 42.6633 5.70133 42.994 5.36C43.3247 5.01867 43.7247 4.75733 44.194 4.576C44.6633 4.384 45.1807 4.288 45.746 4.288C46.3113 4.288 46.8287 4.384 47.298 4.576C47.7673 4.75733 48.1673 5.024 48.498 5.376C48.8287 5.71733 49.0847 6.13333 49.266 6.624C49.4473 7.104 49.538 7.648 49.538 8.256ZM45.746 5.632C45.106 5.632 44.5993 5.86133 44.226 6.32C43.8527 6.77867 43.666 7.424 43.666 8.256C43.666 9.088 43.8473 9.73333 44.21 10.192C44.5727 10.64 45.0847 10.864 45.746 10.864C46.4073 10.864 46.9193 10.64 47.282 10.192C47.6447 9.73333 47.826 9.088 47.826 8.256C47.826 7.43467 47.6393 6.79467 47.266 6.336C46.9033 5.86667 46.3967 5.632 45.746 5.632ZM53.0024 11.968C52.9277 12 52.821 12.0267 52.6824 12.048C52.5544 12.08 52.4104 12.096 52.2504 12.096C51.941 12.096 51.7117 12.0373 51.5624 11.92C51.413 11.8027 51.3384 11.6053 51.3384 11.328V6.08C51.3384 5.81333 51.3917 5.6 51.4984 5.44C51.605 5.26933 51.7757 5.10933 52.0104 4.96C52.3197 4.768 52.7144 4.608 53.1944 4.48C53.6744 4.352 54.2024 4.288 54.7784 4.288C55.717 4.288 56.1864 4.55467 56.1864 5.088C56.1864 5.216 56.165 5.33867 56.1224 5.456C56.0797 5.56267 56.0317 5.65867 55.9784 5.744C55.8717 5.72267 55.7384 5.70133 55.5784 5.68C55.4184 5.65867 55.2477 5.648 55.0664 5.648C54.6397 5.648 54.2504 5.696 53.8984 5.792C53.5464 5.87733 53.2477 5.98933 53.0024 6.128V11.968ZM59.2688 11.968C59.1941 12 59.0874 12.0267 58.9488 12.048C58.8208 12.08 58.6768 12.096 58.5168 12.096C58.2074 12.096 57.9781 12.0373 57.8288 11.92C57.6794 11.8027 57.6048 11.6053 57.6048 11.328V1.616C57.6794 1.59467 57.7861 1.568 57.9248 1.536C58.0634 1.504 58.2128 1.488 58.3728 1.488C58.6821 1.488 58.9061 1.54667 59.0448 1.664C59.1941 1.78133 59.2688 1.97867 59.2688 2.256V7.616L62.5648 4.368C62.9061 4.37867 63.1728 4.45867 63.3648 4.608C63.5674 4.75733 63.6688 4.94933 63.6688 5.184C63.6688 5.376 63.6048 5.54667 63.4768 5.696C63.3488 5.84533 63.1621 6.02667 62.9168 6.24L60.7888 8.112L64.0848 11.12C64.0528 11.4293 63.9568 11.6747 63.7968 11.856C63.6474 12.0267 63.4341 12.112 63.1568 12.112C62.9434 12.112 62.7514 12.0587 62.5808 11.952C62.4208 11.8453 62.2448 11.6853 62.0528 11.472L59.2688 8.528V11.968ZM66.2105 13.68C66.0292 13.712 65.8532 13.728 65.6825 13.728C65.1278 13.728 64.8505 13.4773 64.8505 12.976C64.8505 12.8053 64.8772 12.6187 64.9305 12.416C64.9945 12.224 65.0425 12.064 65.0745 11.936L67.9705 0.719999C68.0665 0.698666 68.1572 0.688 68.2425 0.688C68.3278 0.688 68.4132 0.688 68.4985 0.688C68.7545 0.688 68.9572 0.746666 69.1065 0.863999C69.2665 0.970666 69.3465 1.15733 69.3465 1.424C69.3465 1.59467 69.3198 1.77067 69.2665 1.952C69.2238 2.12267 69.1812 2.29333 69.1385 2.464L66.2105 13.68ZM80.7645 7.072C80.7645 6.44267 80.6738 5.904 80.4925 5.456C80.3112 4.99733 80.0605 4.624 79.7405 4.336C79.4205 4.048 79.0472 3.83467 78.6205 3.696C78.1938 3.55733 77.7352 3.488 77.2445 3.488C76.6792 3.488 76.2098 3.52533 75.8365 3.6V10.656C76.0498 10.7093 76.2845 10.7467 76.5405 10.768C76.8072 10.7787 77.0738 10.784 77.3405 10.784C78.4498 10.784 79.2978 10.4747 79.8845 9.856C80.4712 9.22667 80.7645 8.29867 80.7645 7.072ZM82.5245 7.056C82.5245 7.92 82.4018 8.67733 82.1565 9.328C81.9112 9.968 81.5592 10.5013 81.1005 10.928C80.6525 11.3547 80.1085 11.6747 79.4685 11.888C78.8285 12.0907 78.1192 12.192 77.3405 12.192C76.9992 12.192 76.5992 12.176 76.1405 12.144C75.6818 12.112 75.2552 12.032 74.8605 11.904C74.3698 11.744 74.1245 11.456 74.1245 11.04V3.024C74.1245 2.84267 74.1725 2.704 74.2685 2.608C74.3752 2.50133 74.5192 2.42133 74.7005 2.368C75.0738 2.25067 75.4792 2.176 75.9165 2.144C76.3538 2.10133 76.7805 2.08 77.1965 2.08C77.9858 2.08 78.7058 2.18133 79.3565 2.384C80.0178 2.58667 80.5832 2.896 81.0525 3.312C81.5218 3.728 81.8845 4.25067 82.1405 4.88C82.3965 5.49867 82.5245 6.224 82.5245 7.056ZM88.1121 5.648C87.7708 5.648 87.4561 5.70667 87.1681 5.824C86.8801 5.93067 86.6295 6.096 86.4161 6.32C86.2135 6.544 86.0481 6.82133 85.9201 7.152C85.8028 7.472 85.7441 7.84533 85.7441 8.272C85.7441 9.11467 85.9628 9.76 86.4001 10.208C86.8375 10.6453 87.4081 10.864 88.1121 10.864C88.5175 10.864 88.8641 10.8107 89.1521 10.704C89.4401 10.5973 89.6908 10.4693 89.9041 10.32C90.0428 10.4053 90.1548 10.5067 90.2401 10.624C90.3255 10.7413 90.3681 10.8853 90.3681 11.056C90.3681 11.3867 90.1495 11.664 89.7121 11.888C89.2855 12.112 88.7201 12.224 88.0161 12.224C87.4295 12.224 86.8908 12.144 86.4001 11.984C85.9201 11.824 85.5041 11.5787 85.1521 11.248C84.8001 10.9173 84.5228 10.5067 84.3201 10.016C84.1281 9.51467 84.0321 8.93333 84.0321 8.272C84.0321 7.61067 84.1335 7.02933 84.3361 6.528C84.5495 6.02667 84.8321 5.61067 85.1841 5.28C85.5468 4.94933 85.9681 4.704 86.4481 4.544C86.9281 4.37333 87.4348 4.288 87.9681 4.288C88.3201 4.288 88.6348 4.32 88.9121 4.384C89.2001 4.448 89.4455 4.53867 89.6481 4.656C89.8508 4.76267 90.0055 4.89067 90.1121 5.04C90.2295 5.17867 90.2881 5.328 90.2881 5.488C90.2881 5.63733 90.2455 5.776 90.1601 5.904C90.0855 6.02133 89.9895 6.112 89.8721 6.176C89.6481 6.03733 89.3975 5.91467 89.1201 5.808C88.8535 5.70133 88.5175 5.648 88.1121 5.648Z" fill="#18333E"/>
</svg>
