<svg width="52" height="14" viewBox="0 0 52 14" fill="none" xmlns="http://www.w3.org/2000/svg">
<path d="M1.24 11.016C0.962667 11.016 0.738667 10.9307 0.568 10.76C0.397333 10.5893 0.312 10.3653 0.312 10.088V2.2C0.312 1.92267 0.397333 1.704 0.568 1.544C0.738667 1.37333 0.962667 1.288 1.24 1.288H6.536C6.58933 1.352 6.632 1.44267 6.664 1.56C6.70667 1.67733 6.728 1.80533 6.728 1.944C6.728 2.17867 6.66933 2.36 6.552 2.488C6.44533 2.616 6.296 2.68 6.104 2.68H2.008V5.336H6.056C6.10933 5.4 6.152 5.49067 6.184 5.608C6.22667 5.72533 6.248 5.85333 6.248 5.992C6.248 6.23733 6.18933 6.41867 6.072 6.536C5.96533 6.65333 5.816 6.712 5.624 6.712H2.008V9.624H6.616C6.65867 9.688 6.70133 9.77867 6.744 9.896C6.78667 10.0133 6.808 10.1413 6.808 10.28C6.808 10.5253 6.74933 10.712 6.632 10.84C6.52533 10.9573 6.376 11.016 6.184 11.016H1.24ZM8.69662 9.48C9.00596 9.08533 9.32063 8.70133 9.64062 8.328C9.96063 7.944 10.2753 7.56 10.5846 7.176C10.1793 6.664 9.78463 6.17333 9.40063 5.704C9.02729 5.23467 8.63796 4.75467 8.23263 4.264C8.28596 3.99733 8.38729 3.784 8.53663 3.624C8.69663 3.464 8.89396 3.384 9.12863 3.384C9.35263 3.384 9.52863 3.44267 9.65663 3.56C9.78463 3.67733 9.92329 3.832 10.0726 4.024C10.318 4.35467 10.5686 4.70667 10.8246 5.08C11.0913 5.44267 11.3633 5.80533 11.6406 6.168C12.0033 5.69867 12.35 5.25067 12.6806 4.824C13.0113 4.38667 13.3526 3.912 13.7046 3.4C13.758 3.38933 13.8273 3.384 13.9126 3.384C14.2113 3.384 14.446 3.45333 14.6166 3.592C14.7873 3.73067 14.8726 3.90667 14.8726 4.12C14.8726 4.28 14.8353 4.42933 14.7606 4.568C14.6966 4.696 14.5793 4.86667 14.4086 5.08C14.1206 5.432 13.822 5.784 13.5126 6.136C13.214 6.488 12.9206 6.84 12.6326 7.192L15.0326 10.28C15.0006 10.536 14.9046 10.7387 14.7446 10.888C14.5846 11.0373 14.382 11.112 14.1366 11.112C13.902 11.112 13.71 11.048 13.5606 10.92C13.422 10.792 13.262 10.616 13.0806 10.392C12.8353 10.0507 12.5793 9.69867 12.3126 9.336C12.0566 8.96267 11.806 8.6 11.5606 8.248C11.2086 8.71733 10.8566 9.192 10.5046 9.672C10.1526 10.1413 9.81129 10.616 9.48063 11.096H9.22463C8.89396 11.096 8.64329 11.0267 8.47263 10.888C8.31263 10.7493 8.23263 10.5787 8.23263 10.376C8.23263 10.2373 8.26463 10.1093 8.32863 9.992C8.39263 9.864 8.51529 9.69333 8.69662 9.48ZM20.0273 11.224C19.6859 11.224 19.3659 11.1867 19.0673 11.112C18.7686 11.048 18.5126 10.9627 18.2993 10.856V13.864C18.2246 13.896 18.1179 13.9227 17.9793 13.944C17.8513 13.976 17.7073 13.992 17.5473 13.992C17.2379 13.992 17.0086 13.9333 16.8593 13.816C16.7099 13.6987 16.6353 13.496 16.6353 13.208V4.936C16.6353 4.70133 16.6779 4.51467 16.7633 4.376C16.8486 4.22667 17.0086 4.08267 17.2433 3.944C17.5419 3.77333 17.9046 3.624 18.3313 3.496C18.7686 3.35733 19.2593 3.288 19.8033 3.288C20.3579 3.288 20.8753 3.368 21.3553 3.528C21.8353 3.67733 22.2513 3.912 22.6033 4.232C22.9553 4.552 23.2326 4.96267 23.4353 5.464C23.6379 5.95467 23.7393 6.54133 23.7393 7.224C23.7393 7.896 23.6433 8.48267 23.4513 8.984C23.2699 9.47467 23.0139 9.89067 22.6833 10.232C22.3633 10.5627 21.9739 10.8133 21.5153 10.984C21.0673 11.144 20.5713 11.224 20.0273 11.224ZM19.7713 9.864C20.4646 9.864 21.0139 9.656 21.4193 9.24C21.8246 8.81333 22.0273 8.14133 22.0273 7.224C22.0273 6.75467 21.9686 6.35467 21.8513 6.024C21.7339 5.69333 21.5739 5.42667 21.3713 5.224C21.1793 5.01067 20.9446 4.86133 20.6673 4.776C20.4006 4.68 20.1126 4.632 19.8033 4.632C19.4619 4.632 19.1686 4.67467 18.9233 4.76C18.6886 4.83467 18.4806 4.92533 18.2993 5.032V9.432C18.4806 9.56 18.6939 9.66667 18.9393 9.752C19.1846 9.82667 19.4619 9.864 19.7713 9.864ZM26.5655 11.096C26.2562 11.096 26.0268 11.0373 25.8775 10.92C25.7282 10.8027 25.6535 10.6053 25.6535 10.328V0.615999C25.7282 0.594666 25.8348 0.568 25.9735 0.535999C26.1122 0.504 26.2615 0.488 26.4215 0.488C26.7308 0.488 26.9602 0.546666 27.1095 0.664C27.2588 0.781333 27.3335 0.978666 27.3335 1.256V10.968C27.2482 11 27.1362 11.0267 26.9975 11.048C26.8695 11.08 26.7255 11.096 26.5655 11.096ZM36.8193 7.256C36.8193 7.864 36.7286 8.41333 36.5473 8.904C36.3659 9.39467 36.1099 9.81067 35.7793 10.152C35.4593 10.4933 35.0646 10.76 34.5953 10.952C34.1259 11.1333 33.6033 11.224 33.0273 11.224C32.4513 11.224 31.9286 11.1333 31.4593 10.952C30.9899 10.76 30.5899 10.4933 30.2593 10.152C29.9393 9.81067 29.6886 9.39467 29.5073 8.904C29.3259 8.41333 29.2353 7.864 29.2353 7.256C29.2353 6.648 29.3259 6.09867 29.5073 5.608C29.6886 5.11733 29.9446 4.70133 30.2753 4.36C30.6059 4.01867 31.0059 3.75733 31.4753 3.576C31.9446 3.384 32.4619 3.288 33.0273 3.288C33.5926 3.288 34.1099 3.384 34.5793 3.576C35.0486 3.75733 35.4486 4.024 35.7793 4.376C36.1099 4.71733 36.3659 5.13333 36.5473 5.624C36.7286 6.104 36.8193 6.648 36.8193 7.256ZM33.0273 4.632C32.3873 4.632 31.8806 4.86133 31.5073 5.32C31.1339 5.77867 30.9473 6.424 30.9473 7.256C30.9473 8.088 31.1286 8.73333 31.4913 9.192C31.8539 9.64 32.3659 9.864 33.0273 9.864C33.6886 9.864 34.2006 9.64 34.5633 9.192C34.9259 8.73333 35.1073 8.088 35.1073 7.256C35.1073 6.43467 34.9206 5.79467 34.5473 5.336C34.1846 4.86667 33.6779 4.632 33.0273 4.632ZM40.2836 10.968C40.209 11 40.1023 11.0267 39.9636 11.048C39.8356 11.08 39.6916 11.096 39.5316 11.096C39.2223 11.096 38.993 11.0373 38.8436 10.92C38.6943 10.8027 38.6196 10.6053 38.6196 10.328V5.08C38.6196 4.81333 38.673 4.6 38.7796 4.44C38.8863 4.26933 39.057 4.10933 39.2916 3.96C39.601 3.768 39.9956 3.608 40.4756 3.48C40.9556 3.352 41.4836 3.288 42.0596 3.288C42.9983 3.288 43.4676 3.55467 43.4676 4.088C43.4676 4.216 43.4463 4.33867 43.4036 4.456C43.361 4.56267 43.313 4.65867 43.2596 4.744C43.153 4.72267 43.0196 4.70133 42.8596 4.68C42.6996 4.65867 42.529 4.648 42.3476 4.648C41.921 4.648 41.5316 4.696 41.1796 4.792C40.8276 4.87733 40.529 4.98933 40.2836 5.128V10.968ZM45.9625 8.104C46.1118 8.712 46.3998 9.16533 46.8265 9.464C47.2638 9.752 47.8185 9.896 48.4905 9.896C48.9385 9.896 49.3492 9.82667 49.7225 9.688C50.0958 9.54933 50.3945 9.4 50.6185 9.24C50.9172 9.41067 51.0665 9.65067 51.0665 9.96C51.0665 10.1413 50.9972 10.312 50.8585 10.472C50.7198 10.6213 50.5278 10.7547 50.2825 10.872C50.0478 10.9787 49.7652 11.064 49.4345 11.128C49.1145 11.192 48.7678 11.224 48.3945 11.224C47.7758 11.224 47.2105 11.1387 46.6985 10.968C46.1972 10.7973 45.7652 10.5413 45.4025 10.2C45.0398 9.85867 44.7572 9.43733 44.5545 8.936C44.3625 8.43467 44.2665 7.85333 44.2665 7.192C44.2665 6.552 44.3625 5.992 44.5545 5.512C44.7465 5.02133 45.0078 4.616 45.3385 4.296C45.6692 3.96533 46.0585 3.71467 46.5065 3.544C46.9545 3.37333 47.4345 3.288 47.9465 3.288C48.4585 3.288 48.9225 3.37333 49.3385 3.544C49.7652 3.704 50.1278 3.93333 50.4265 4.232C50.7358 4.52 50.9705 4.86667 51.1305 5.272C51.3012 5.67733 51.3865 6.12 51.3865 6.6C51.3865 6.86667 51.3225 7.064 51.1945 7.192C51.0665 7.30933 50.8798 7.38933 50.6345 7.432L45.9625 8.104ZM47.9465 4.584C47.3598 4.584 46.8692 4.78133 46.4745 5.176C46.0905 5.57067 45.8878 6.136 45.8665 6.872L49.8025 6.312C49.7598 5.832 49.5838 5.42667 49.2745 5.096C48.9652 4.75467 48.5225 4.584 47.9465 4.584Z" fill="#18333E"/>
</svg>
