<svg width="42" height="14" viewBox="0 0 42 14" fill="none" xmlns="http://www.w3.org/2000/svg">
<path d="M9.312 9.768C9.312 9.992 9.25333 10.1787 9.136 10.328C9.02933 10.4667 8.85867 10.5947 8.624 10.712C8.34667 10.8613 7.96267 10.984 7.472 11.08C6.98133 11.176 6.48 11.224 5.968 11.224C5.21067 11.224 4.512 11.128 3.872 10.936C3.24267 10.7333 2.69867 10.424 2.24 10.008C1.78133 9.592 1.424 9.064 1.168 8.424C0.912 7.784 0.784 7.02667 0.784 6.152C0.784 5.29867 0.917333 4.552 1.184 3.912C1.45067 3.272 1.808 2.744 2.256 2.328C2.71467 1.90133 3.248 1.58133 3.856 1.368C4.47467 1.15467 5.13067 1.048 5.824 1.048C6.28267 1.048 6.704 1.09067 7.088 1.176C7.472 1.25067 7.80267 1.352 8.08 1.48C8.35733 1.608 8.57067 1.75733 8.72 1.928C8.86933 2.088 8.944 2.25867 8.944 2.44C8.944 2.62133 8.896 2.78133 8.8 2.92C8.704 3.048 8.58667 3.14933 8.448 3.224C8.16 3.04267 7.81867 2.872 7.424 2.712C7.02933 2.552 6.53333 2.472 5.936 2.472C5.456 2.472 5.008 2.552 4.592 2.712C4.176 2.872 3.81333 3.10667 3.504 3.416C3.20533 3.72533 2.97067 4.10933 2.8 4.568C2.62933 5.02667 2.544 5.55467 2.544 6.152C2.544 6.78133 2.62933 7.33067 2.8 7.8C2.98133 8.25867 3.22133 8.63733 3.52 8.936C3.82933 9.23467 4.192 9.45867 4.608 9.608C5.03467 9.74667 5.49333 9.816 5.984 9.816C6.32533 9.816 6.64533 9.78933 6.944 9.736C7.24267 9.672 7.472 9.59733 7.632 9.512V6.952H5.424C5.37067 6.888 5.32267 6.79733 5.28 6.68C5.248 6.552 5.232 6.424 5.232 6.296C5.232 6.05067 5.28533 5.86933 5.392 5.752C5.50933 5.63467 5.664 5.576 5.856 5.576H8.544C8.768 5.576 8.94933 5.64533 9.088 5.784C9.23733 5.912 9.312 6.09867 9.312 6.344V9.768ZM13.1274 10.968C13.0527 11 12.946 11.0267 12.8074 11.048C12.6794 11.08 12.5354 11.096 12.3754 11.096C12.066 11.096 11.8367 11.0373 11.6874 10.92C11.538 10.8027 11.4634 10.6053 11.4634 10.328V5.08C11.4634 4.81333 11.5167 4.6 11.6234 4.44C11.73 4.26933 11.9007 4.10933 12.1354 3.96C12.4447 3.768 12.8394 3.608 13.3194 3.48C13.7994 3.352 14.3274 3.288 14.9034 3.288C15.842 3.288 16.3114 3.55467 16.3114 4.088C16.3114 4.216 16.29 4.33867 16.2474 4.456C16.2047 4.56267 16.1567 4.65867 16.1034 4.744C15.9967 4.72267 15.8634 4.70133 15.7034 4.68C15.5434 4.65867 15.3727 4.648 15.1914 4.648C14.7647 4.648 14.3754 4.696 14.0234 4.792C13.6714 4.87733 13.3727 4.98933 13.1274 5.128V10.968ZM20.3888 9.928C20.7621 9.928 21.0874 9.89067 21.3648 9.816C21.6421 9.74133 21.8394 9.66133 21.9568 9.576V7.544L20.2128 7.72C19.7221 7.77333 19.3541 7.88533 19.1088 8.056C18.8634 8.216 18.7408 8.46667 18.7408 8.808C18.7408 9.16 18.8741 9.43733 19.1408 9.64C19.4074 9.832 19.8234 9.928 20.3888 9.928ZM20.3568 3.288C21.3488 3.288 22.1381 3.50667 22.7248 3.944C23.3114 4.37067 23.6048 5.048 23.6048 5.976V9.704C23.6048 9.94933 23.5461 10.1413 23.4288 10.28C23.3221 10.408 23.1728 10.5307 22.9808 10.648C22.7034 10.808 22.3461 10.9467 21.9088 11.064C21.4714 11.1813 20.9648 11.24 20.3888 11.24C19.3541 11.24 18.5434 11.0373 17.9568 10.632C17.3808 10.2267 17.0928 9.62933 17.0928 8.84C17.0928 8.136 17.3168 7.59733 17.7648 7.224C18.2234 6.85067 18.8794 6.62133 19.7328 6.536L21.9568 6.312V5.96C21.9568 5.49067 21.8021 5.14933 21.4928 4.936C21.1941 4.72267 20.7728 4.616 20.2288 4.616C19.8021 4.616 19.3914 4.67467 18.9968 4.792C18.6021 4.90933 18.2501 5.04267 17.9408 5.192C17.8341 5.10667 17.7434 5.00533 17.6688 4.888C17.5941 4.76 17.5568 4.62133 17.5568 4.472C17.5568 4.29067 17.5994 4.14133 17.6848 4.024C17.7808 3.90667 17.9248 3.80533 18.1168 3.72C18.4154 3.57067 18.7568 3.464 19.1408 3.4C19.5248 3.32533 19.9301 3.288 20.3568 3.288ZM29.1366 11.224C28.7953 11.224 28.4753 11.1867 28.1766 11.112C27.878 11.048 27.622 10.9627 27.4086 10.856V13.864C27.334 13.896 27.2273 13.9227 27.0886 13.944C26.9606 13.976 26.8166 13.992 26.6566 13.992C26.3473 13.992 26.118 13.9333 25.9686 13.816C25.8193 13.6987 25.7446 13.496 25.7446 13.208V4.936C25.7446 4.70133 25.7873 4.51467 25.8726 4.376C25.958 4.22667 26.118 4.08267 26.3526 3.944C26.6513 3.77333 27.014 3.624 27.4406 3.496C27.878 3.35733 28.3686 3.288 28.9126 3.288C29.4673 3.288 29.9846 3.368 30.4646 3.528C30.9446 3.67733 31.3606 3.912 31.7126 4.232C32.0646 4.552 32.342 4.96267 32.5446 5.464C32.7473 5.95467 32.8486 6.54133 32.8486 7.224C32.8486 7.896 32.7526 8.48267 32.5606 8.984C32.3793 9.47467 32.1233 9.89067 31.7926 10.232C31.4726 10.5627 31.0833 10.8133 30.6246 10.984C30.1766 11.144 29.6806 11.224 29.1366 11.224ZM28.8806 9.864C29.574 9.864 30.1233 9.656 30.5286 9.24C30.934 8.81333 31.1366 8.14133 31.1366 7.224C31.1366 6.75467 31.078 6.35467 30.9606 6.024C30.8433 5.69333 30.6833 5.42667 30.4806 5.224C30.2886 5.01067 30.054 4.86133 29.7766 4.776C29.51 4.68 29.222 4.632 28.9126 4.632C28.5713 4.632 28.278 4.67467 28.0326 4.76C27.798 4.83467 27.59 4.92533 27.4086 5.032V9.432C27.59 9.56 27.8033 9.66667 28.0486 9.752C28.294 9.82667 28.5713 9.864 28.8806 9.864ZM39.7389 6.328C39.7389 5.74133 39.5789 5.31467 39.2589 5.048C38.9495 4.77067 38.5389 4.632 38.0269 4.632C37.6855 4.632 37.3709 4.69067 37.0829 4.808C36.8055 4.91467 36.5602 5.048 36.3469 5.208V10.968C36.2722 11 36.1655 11.0267 36.0269 11.048C35.8989 11.08 35.7549 11.096 35.5949 11.096C35.2855 11.096 35.0562 11.0373 34.9069 10.92C34.7575 10.8027 34.6829 10.6053 34.6829 10.328V0.615999C34.7575 0.594666 34.8642 0.568 35.0029 0.535999C35.1415 0.504 35.2909 0.488 35.4509 0.488C35.7602 0.488 35.9842 0.546666 36.1229 0.664C36.2722 0.781333 36.3469 0.978666 36.3469 1.256V3.784C36.5922 3.656 36.8749 3.544 37.1949 3.448C37.5255 3.34133 37.8935 3.288 38.2989 3.288C39.2269 3.288 39.9735 3.53333 40.5389 4.024C41.1149 4.51467 41.4029 5.26133 41.4029 6.264V10.968C41.3282 11 41.2215 11.0267 41.0829 11.048C40.9442 11.08 40.8002 11.096 40.6509 11.096C40.3309 11.096 40.0962 11.0373 39.9469 10.92C39.8082 10.8027 39.7389 10.6053 39.7389 10.328V6.328Z" fill="#18333E"/>
</svg>
