<svg width="67" height="14" viewBox="0 0 67 14" fill="none" xmlns="http://www.w3.org/2000/svg">
<path d="M6.168 7.504C6.08267 7.57867 5.96533 7.64267 5.816 7.696C5.66667 7.74933 5.496 7.776 5.304 7.776C5.08 7.776 4.88267 7.744 4.712 7.68C4.552 7.60533 4.44 7.49333 4.376 7.344C3.88533 6.21333 3.45867 5.21067 3.096 4.336C2.744 3.46133 2.46133 2.73067 2.248 2.144H2.168C2.136 2.90133 2.104 3.6 2.072 4.24C2.05067 4.86933 2.024 5.488 1.992 6.096C1.96 6.704 1.92267 7.32267 1.88 7.952C1.848 8.58133 1.81067 9.25867 1.768 9.984C1.68267 10.016 1.57067 10.0427 1.432 10.064C1.304 10.096 1.16533 10.112 1.016 10.112C0.44 10.112 0.152 9.87733 0.152 9.408C0.152 9.26933 0.157333 9.024 0.168 8.672C0.189333 8.32 0.210667 7.904 0.232 7.424C0.264 6.93333 0.296 6.39467 0.328 5.808C0.370667 5.22133 0.413333 4.62933 0.456 4.032C0.498667 3.424 0.541333 2.832 0.584 2.256C0.626667 1.66933 0.669333 1.13067 0.712 0.639999C0.797333 0.554666 0.936 0.463999 1.128 0.367999C1.33067 0.272 1.576 0.224 1.864 0.224C2.20533 0.224 2.47733 0.288 2.68 0.415999C2.88267 0.533333 3.04267 0.714667 3.16 0.96C3.33067 1.33333 3.50667 1.73867 3.688 2.176C3.86933 2.60267 4.05067 3.04 4.232 3.488C4.41333 3.92533 4.58933 4.36267 4.76 4.8C4.93067 5.23733 5.096 5.648 5.256 6.032H5.336C5.53867 5.49867 5.74133 4.97067 5.944 4.448C6.15733 3.92533 6.36 3.424 6.552 2.944C6.75467 2.464 6.94133 2.01067 7.112 1.584C7.29333 1.15733 7.45867 0.773333 7.608 0.431999C7.72533 0.378666 7.86933 0.330666 8.04 0.287999C8.21067 0.245333 8.38667 0.224 8.568 0.224C8.92 0.224 9.18133 0.277333 9.352 0.384C9.53333 0.490666 9.65067 0.645333 9.704 0.848C9.74667 1.04 9.79467 1.36 9.848 1.808C9.90133 2.24533 9.95467 2.752 10.008 3.328C10.0613 3.904 10.1147 4.51733 10.168 5.168C10.2213 5.808 10.2693 6.432 10.312 7.04C10.3547 7.63733 10.392 8.192 10.424 8.704C10.456 9.20533 10.4773 9.6 10.488 9.888C10.3707 9.96267 10.2427 10.016 10.104 10.048C9.976 10.0907 9.82133 10.112 9.64 10.112C9.416 10.112 9.21867 10.064 9.048 9.968C8.888 9.872 8.79733 9.69067 8.776 9.424C8.73333 8.69867 8.69067 7.984 8.648 7.28C8.616 6.576 8.584 5.90933 8.552 5.28C8.52 4.65067 8.488 4.06933 8.456 3.536C8.43467 3.00267 8.41333 2.54933 8.392 2.176H8.328C8.12533 2.72 7.848 3.41333 7.496 4.256C7.15467 5.09867 6.712 6.18133 6.168 7.504ZM13.9 7.104C14.0493 7.712 14.3373 8.16533 14.764 8.464C15.2013 8.752 15.756 8.896 16.428 8.896C16.876 8.896 17.2867 8.82667 17.66 8.688C18.0333 8.54933 18.332 8.4 18.556 8.24C18.8547 8.41067 19.004 8.65067 19.004 8.96C19.004 9.14133 18.9347 9.312 18.796 9.472C18.6573 9.62133 18.4653 9.75467 18.22 9.872C17.9853 9.97867 17.7027 10.064 17.372 10.128C17.052 10.192 16.7053 10.224 16.332 10.224C15.7133 10.224 15.148 10.1387 14.636 9.968C14.1347 9.79733 13.7027 9.54133 13.34 9.2C12.9773 8.85867 12.6947 8.43733 12.492 7.936C12.3 7.43467 12.204 6.85333 12.204 6.192C12.204 5.552 12.3 4.992 12.492 4.512C12.684 4.02133 12.9453 3.616 13.276 3.296C13.6067 2.96533 13.996 2.71467 14.444 2.544C14.892 2.37333 15.372 2.288 15.884 2.288C16.396 2.288 16.86 2.37333 17.276 2.544C17.7027 2.704 18.0653 2.93333 18.364 3.232C18.6733 3.52 18.908 3.86667 19.068 4.272C19.2387 4.67733 19.324 5.12 19.324 5.6C19.324 5.86667 19.26 6.064 19.132 6.192C19.004 6.30933 18.8173 6.38933 18.572 6.432L13.9 7.104ZM15.884 3.584C15.2973 3.584 14.8067 3.78133 14.412 4.176C14.028 4.57067 13.8253 5.136 13.804 5.872L17.74 5.312C17.6973 4.832 17.5213 4.42667 17.212 4.096C16.9027 3.75467 16.46 3.584 15.884 3.584ZM26.688 7.936C26.688 8.65067 26.4213 9.21067 25.888 9.616C25.3547 10.0213 24.5813 10.224 23.568 10.224C23.152 10.224 22.768 10.192 22.416 10.128C22.064 10.064 21.76 9.97333 21.504 9.856C21.2587 9.73867 21.0667 9.6 20.928 9.44C20.7893 9.28 20.72 9.104 20.72 8.912C20.72 8.752 20.7573 8.60267 20.832 8.464C20.9173 8.32533 21.0293 8.21333 21.168 8.128C21.4667 8.32 21.808 8.496 22.192 8.656C22.576 8.816 23.024 8.896 23.536 8.896C24.016 8.896 24.384 8.816 24.64 8.656C24.896 8.48533 25.024 8.24533 25.024 7.936C25.024 7.66933 24.9333 7.456 24.752 7.296C24.5813 7.136 24.3253 7.01333 23.984 6.928L22.896 6.64C22.1707 6.448 21.6373 6.18667 21.296 5.856C20.9547 5.52533 20.784 5.072 20.784 4.496C20.784 4.18667 20.848 3.89867 20.976 3.632C21.104 3.35467 21.2907 3.12 21.536 2.928C21.792 2.72533 22.1067 2.57067 22.48 2.464C22.8533 2.34667 23.28 2.288 23.76 2.288C24.144 2.288 24.4907 2.32 24.8 2.384C25.12 2.43733 25.392 2.51733 25.616 2.624C25.8507 2.72 26.032 2.84267 26.16 2.992C26.288 3.14133 26.352 3.30133 26.352 3.472C26.352 3.64267 26.3147 3.792 26.24 3.92C26.1653 4.03733 26.0693 4.13333 25.952 4.208C25.76 4.09067 25.472 3.96267 25.088 3.824C24.7147 3.68533 24.3093 3.616 23.872 3.616C23.424 3.616 23.072 3.696 22.816 3.856C22.56 4.00533 22.432 4.21867 22.432 4.496C22.432 4.70933 22.5013 4.88533 22.64 5.024C22.7893 5.16267 23.04 5.27467 23.392 5.36L24.32 5.6C25.1307 5.81333 25.728 6.10133 26.112 6.464C26.496 6.82667 26.688 7.31733 26.688 7.936ZM34.0318 7.936C34.0318 8.65067 33.7651 9.21067 33.2318 9.616C32.6984 10.0213 31.9251 10.224 30.9118 10.224C30.4958 10.224 30.1118 10.192 29.7598 10.128C29.4078 10.064 29.1038 9.97333 28.8478 9.856C28.6024 9.73867 28.4104 9.6 28.2718 9.44C28.1331 9.28 28.0638 9.104 28.0638 8.912C28.0638 8.752 28.1011 8.60267 28.1758 8.464C28.2611 8.32533 28.3731 8.21333 28.5118 8.128C28.8104 8.32 29.1518 8.496 29.5358 8.656C29.9198 8.816 30.3678 8.896 30.8798 8.896C31.3598 8.896 31.7278 8.816 31.9838 8.656C32.2398 8.48533 32.3678 8.24533 32.3678 7.936C32.3678 7.66933 32.2771 7.456 32.0958 7.296C31.9251 7.136 31.6691 7.01333 31.3278 6.928L30.2398 6.64C29.5144 6.448 28.9811 6.18667 28.6398 5.856C28.2984 5.52533 28.1278 5.072 28.1278 4.496C28.1278 4.18667 28.1918 3.89867 28.3198 3.632C28.4478 3.35467 28.6344 3.12 28.8798 2.928C29.1358 2.72533 29.4504 2.57067 29.8238 2.464C30.1971 2.34667 30.6238 2.288 31.1038 2.288C31.4878 2.288 31.8344 2.32 32.1438 2.384C32.4638 2.43733 32.7358 2.51733 32.9598 2.624C33.1944 2.72 33.3758 2.84267 33.5038 2.992C33.6318 3.14133 33.6958 3.30133 33.6958 3.472C33.6958 3.64267 33.6584 3.792 33.5838 3.92C33.5091 4.03733 33.4131 4.13333 33.2958 4.208C33.1038 4.09067 32.8158 3.96267 32.4318 3.824C32.0584 3.68533 31.6531 3.616 31.2158 3.616C30.7678 3.616 30.4158 3.696 30.1598 3.856C29.9038 4.00533 29.7758 4.21867 29.7758 4.496C29.7758 4.70933 29.8451 4.88533 29.9838 5.024C30.1331 5.16267 30.3838 5.27467 30.7358 5.36L31.6638 5.6C32.4744 5.81333 33.0718 6.10133 33.4558 6.464C33.8398 6.82667 34.0318 7.31733 34.0318 7.936ZM38.7794 8.928C39.1527 8.928 39.478 8.89067 39.7554 8.816C40.0327 8.74133 40.23 8.66133 40.3474 8.576V6.544L38.6034 6.72C38.1127 6.77333 37.7447 6.88533 37.4994 7.056C37.254 7.216 37.1314 7.46667 37.1314 7.808C37.1314 8.16 37.2647 8.43733 37.5314 8.64C37.798 8.832 38.214 8.928 38.7794 8.928ZM38.7474 2.288C39.7394 2.288 40.5287 2.50667 41.1154 2.944C41.702 3.37067 41.9954 4.048 41.9954 4.976V8.704C41.9954 8.94933 41.9367 9.14133 41.8194 9.28C41.7127 9.408 41.5634 9.53067 41.3714 9.648C41.094 9.808 40.7367 9.94667 40.2994 10.064C39.862 10.1813 39.3554 10.24 38.7794 10.24C37.7447 10.24 36.934 10.0373 36.3474 9.632C35.7714 9.22667 35.4834 8.62933 35.4834 7.84C35.4834 7.136 35.7074 6.59733 36.1554 6.224C36.614 5.85067 37.27 5.62133 38.1234 5.536L40.3474 5.312V4.96C40.3474 4.49067 40.1927 4.14933 39.8834 3.936C39.5847 3.72267 39.1634 3.616 38.6194 3.616C38.1927 3.616 37.782 3.67467 37.3874 3.792C36.9927 3.90933 36.6407 4.04267 36.3314 4.192C36.2247 4.10667 36.134 4.00533 36.0594 3.888C35.9847 3.76 35.9474 3.62133 35.9474 3.472C35.9474 3.29067 35.99 3.14133 36.0754 3.024C36.1714 2.90667 36.3154 2.80533 36.5074 2.72C36.806 2.57067 37.1474 2.464 37.5314 2.4C37.9154 2.32533 38.3207 2.288 38.7474 2.288ZM49.0313 9.296C48.8286 9.424 48.5779 9.53067 48.2793 9.616C47.9913 9.70133 47.6446 9.744 47.2393 9.744C46.7699 9.744 46.3219 9.68 45.8953 9.552C45.4793 9.41333 45.1113 9.2 44.7913 8.912C44.4713 8.61333 44.2153 8.22933 44.0233 7.76C43.8419 7.29067 43.7513 6.71467 43.7513 6.032C43.7513 5.41333 43.8419 4.87467 44.0233 4.416C44.2153 3.94667 44.4766 3.55733 44.8073 3.248C45.1486 2.928 45.5486 2.688 46.0073 2.528C46.4766 2.368 46.9939 2.288 47.5593 2.288C48.0819 2.288 48.5619 2.35733 48.9993 2.496C49.4473 2.624 49.8099 2.77867 50.0873 2.96C50.2686 3.07733 50.4073 3.21067 50.5033 3.36C50.6099 3.50933 50.6633 3.69067 50.6633 3.904V10.208C50.6633 10.7413 50.5673 11.2 50.3753 11.584C50.1939 11.968 49.9379 12.2773 49.6073 12.512C49.2873 12.7573 48.9033 12.9333 48.4553 13.04C48.0073 13.1573 47.5273 13.216 47.0153 13.216C46.4713 13.216 46.0019 13.1627 45.6073 13.056C45.2126 12.9493 44.9246 12.8427 44.7433 12.736C44.4126 12.5333 44.2473 12.2667 44.2473 11.936C44.2473 11.7547 44.2846 11.6 44.3593 11.472C44.4339 11.3547 44.5299 11.2587 44.6473 11.184C44.8926 11.3547 45.2179 11.5093 45.6233 11.648C46.0286 11.7867 46.4606 11.856 46.9193 11.856C47.5913 11.856 48.1086 11.7173 48.4713 11.44C48.8446 11.1733 49.0313 10.736 49.0313 10.128V9.296ZM47.4793 8.432C47.8419 8.432 48.1459 8.37867 48.3913 8.272C48.6366 8.16533 48.8446 8.03733 49.0153 7.888V4.016C48.8553 3.92 48.6579 3.83467 48.4233 3.76C48.1886 3.67467 47.9113 3.632 47.5913 3.632C46.9406 3.632 46.4179 3.82933 46.0233 4.224C45.6286 4.61867 45.4313 5.216 45.4313 6.016C45.4313 6.45333 45.4846 6.82667 45.5913 7.136C45.6979 7.44533 45.8419 7.696 46.0233 7.888C46.2046 8.08 46.4179 8.21867 46.6633 8.304C46.9193 8.38933 47.1913 8.432 47.4793 8.432ZM54.15 7.104C54.2993 7.712 54.5873 8.16533 55.014 8.464C55.4513 8.752 56.006 8.896 56.678 8.896C57.126 8.896 57.5367 8.82667 57.91 8.688C58.2833 8.54933 58.582 8.4 58.806 8.24C59.1047 8.41067 59.254 8.65067 59.254 8.96C59.254 9.14133 59.1847 9.312 59.046 9.472C58.9073 9.62133 58.7153 9.75467 58.47 9.872C58.2353 9.97867 57.9527 10.064 57.622 10.128C57.302 10.192 56.9553 10.224 56.582 10.224C55.9633 10.224 55.398 10.1387 54.886 9.968C54.3847 9.79733 53.9527 9.54133 53.59 9.2C53.2273 8.85867 52.9447 8.43733 52.742 7.936C52.55 7.43467 52.454 6.85333 52.454 6.192C52.454 5.552 52.55 4.992 52.742 4.512C52.934 4.02133 53.1953 3.616 53.526 3.296C53.8567 2.96533 54.246 2.71467 54.694 2.544C55.142 2.37333 55.622 2.288 56.134 2.288C56.646 2.288 57.11 2.37333 57.526 2.544C57.9527 2.704 58.3153 2.93333 58.614 3.232C58.9233 3.52 59.158 3.86667 59.318 4.272C59.4887 4.67733 59.574 5.12 59.574 5.6C59.574 5.86667 59.51 6.064 59.382 6.192C59.254 6.30933 59.0673 6.38933 58.822 6.432L54.15 7.104ZM56.134 3.584C55.5473 3.584 55.0567 3.78133 54.662 4.176C54.278 4.57067 54.0753 5.136 54.054 5.872L57.99 5.312C57.9473 4.832 57.7713 4.42667 57.462 4.096C57.1527 3.75467 56.71 3.584 56.134 3.584ZM66.938 7.936C66.938 8.65067 66.6713 9.21067 66.138 9.616C65.6047 10.0213 64.8313 10.224 63.818 10.224C63.402 10.224 63.018 10.192 62.666 10.128C62.314 10.064 62.01 9.97333 61.754 9.856C61.5087 9.73867 61.3167 9.6 61.178 9.44C61.0393 9.28 60.97 9.104 60.97 8.912C60.97 8.752 61.0073 8.60267 61.082 8.464C61.1673 8.32533 61.2793 8.21333 61.418 8.128C61.7167 8.32 62.058 8.496 62.442 8.656C62.826 8.816 63.274 8.896 63.786 8.896C64.266 8.896 64.634 8.816 64.89 8.656C65.146 8.48533 65.274 8.24533 65.274 7.936C65.274 7.66933 65.1833 7.456 65.002 7.296C64.8313 7.136 64.5753 7.01333 64.234 6.928L63.146 6.64C62.4207 6.448 61.8873 6.18667 61.546 5.856C61.2047 5.52533 61.034 5.072 61.034 4.496C61.034 4.18667 61.098 3.89867 61.226 3.632C61.354 3.35467 61.5407 3.12 61.786 2.928C62.042 2.72533 62.3567 2.57067 62.73 2.464C63.1033 2.34667 63.53 2.288 64.01 2.288C64.394 2.288 64.7407 2.32 65.05 2.384C65.37 2.43733 65.642 2.51733 65.866 2.624C66.1007 2.72 66.282 2.84267 66.41 2.992C66.538 3.14133 66.602 3.30133 66.602 3.472C66.602 3.64267 66.5647 3.792 66.49 3.92C66.4153 4.03733 66.3193 4.13333 66.202 4.208C66.01 4.09067 65.722 3.96267 65.338 3.824C64.9647 3.68533 64.5593 3.616 64.122 3.616C63.674 3.616 63.322 3.696 63.066 3.856C62.81 4.00533 62.682 4.21867 62.682 4.496C62.682 4.70933 62.7513 4.88533 62.89 5.024C63.0393 5.16267 63.29 5.27467 63.642 5.36L64.57 5.6C65.3807 5.81333 65.978 6.10133 66.362 6.464C66.746 6.82667 66.938 7.31733 66.938 7.936Z" fill="#18333E"/>
</svg>
