<svg width="42" height="12" viewBox="0 0 42 12" fill="none" xmlns="http://www.w3.org/2000/svg">
<path d="M8.328 10.776C8.21067 10.872 8.06133 10.952 7.88 11.016C7.69867 11.08 7.48533 11.112 7.24 11.112C6.94133 11.112 6.68 11.0587 6.456 10.952C6.24267 10.8347 6.04533 10.6213 5.864 10.312L3.224 5.72C3.10667 5.51733 2.984 5.304 2.856 5.08C2.73867 4.856 2.62133 4.632 2.504 4.408C2.39733 4.184 2.29067 3.97067 2.184 3.768C2.088 3.55467 2.00267 3.368 1.928 3.208L1.848 3.224C1.90133 3.77867 1.93867 4.376 1.96 5.016C1.98133 5.64533 1.992 6.24267 1.992 6.808V10.984C1.91733 11.0053 1.80533 11.0267 1.656 11.048C1.51733 11.08 1.37333 11.096 1.224 11.096C0.904 11.096 0.669333 11.0373 0.52 10.92C0.381333 10.8027 0.312 10.6053 0.312 10.328V1.56C0.418667 1.44267 0.568 1.352 0.76 1.288C0.962667 1.21333 1.176 1.176 1.4 1.176C1.69867 1.176 1.96 1.22933 2.184 1.336C2.408 1.44267 2.61067 1.65067 2.792 1.96L5.448 6.568C5.56533 6.77067 5.68267 6.984 5.8 7.208C5.91733 7.432 6.02933 7.656 6.136 7.88C6.25333 8.104 6.36 8.32267 6.456 8.536C6.56267 8.73867 6.65333 8.92 6.728 9.08L6.792 9.064C6.70667 8.25333 6.65867 7.45333 6.648 6.664C6.63733 5.864 6.632 5.08533 6.632 4.328V1.288C6.71733 1.26667 6.82933 1.24533 6.968 1.224C7.10667 1.192 7.256 1.176 7.416 1.176C7.736 1.176 7.96533 1.23467 8.104 1.352C8.25333 1.46933 8.328 1.66667 8.328 1.944V10.776ZM17.9286 7.256C17.9286 7.864 17.838 8.41333 17.6566 8.904C17.4753 9.39467 17.2193 9.81067 16.8886 10.152C16.5686 10.4933 16.174 10.76 15.7046 10.952C15.2353 11.1333 14.7126 11.224 14.1366 11.224C13.5606 11.224 13.038 11.1333 12.5686 10.952C12.0993 10.76 11.6993 10.4933 11.3686 10.152C11.0486 9.81067 10.798 9.39467 10.6166 8.904C10.4353 8.41333 10.3446 7.864 10.3446 7.256C10.3446 6.648 10.4353 6.09867 10.6166 5.608C10.798 5.11733 11.054 4.70133 11.3846 4.36C11.7153 4.01867 12.1153 3.75733 12.5846 3.576C13.054 3.384 13.5713 3.288 14.1366 3.288C14.702 3.288 15.2193 3.384 15.6886 3.576C16.158 3.75733 16.558 4.024 16.8886 4.376C17.2193 4.71733 17.4753 5.13333 17.6566 5.624C17.838 6.104 17.9286 6.648 17.9286 7.256ZM14.1366 4.632C13.4966 4.632 12.99 4.86133 12.6166 5.32C12.2433 5.77867 12.0566 6.424 12.0566 7.256C12.0566 8.088 12.238 8.73333 12.6006 9.192C12.9633 9.64 13.4753 9.864 14.1366 9.864C14.798 9.864 15.31 9.64 15.6726 9.192C16.0353 8.73333 16.2166 8.088 16.2166 7.256C16.2166 6.43467 16.03 5.79467 15.6566 5.336C15.294 4.86667 14.7873 4.632 14.1366 4.632ZM21.409 8.808C21.409 9.192 21.521 9.464 21.745 9.624C21.969 9.784 22.2837 9.864 22.689 9.864C22.8703 9.864 23.0623 9.83733 23.265 9.784C23.4677 9.73067 23.6437 9.66667 23.793 9.592C23.8677 9.67733 23.9317 9.77333 23.985 9.88C24.049 9.98667 24.081 10.1147 24.081 10.264C24.081 10.5413 23.937 10.7707 23.649 10.952C23.3717 11.1333 22.945 11.224 22.369 11.224C21.569 11.224 20.929 11.048 20.449 10.696C19.9797 10.3333 19.745 9.74133 19.745 8.92V1.448C19.8197 1.42667 19.9263 1.4 20.065 1.368C20.2037 1.336 20.353 1.32 20.513 1.32C20.8223 1.32 21.0463 1.37867 21.185 1.496C21.3343 1.61333 21.409 1.81067 21.409 2.088V3.672H23.889C23.9317 3.736 23.969 3.82667 24.001 3.944C24.0437 4.06133 24.065 4.184 24.065 4.312C24.065 4.77067 23.8677 5 23.473 5H21.409V8.808ZM26.9 8.104C27.0493 8.712 27.3373 9.16533 27.764 9.464C28.2013 9.752 28.756 9.896 29.428 9.896C29.876 9.896 30.2867 9.82667 30.66 9.688C31.0333 9.54933 31.332 9.4 31.556 9.24C31.8547 9.41067 32.004 9.65067 32.004 9.96C32.004 10.1413 31.9347 10.312 31.796 10.472C31.6573 10.6213 31.4653 10.7547 31.22 10.872C30.9853 10.9787 30.7027 11.064 30.372 11.128C30.052 11.192 29.7053 11.224 29.332 11.224C28.7133 11.224 28.148 11.1387 27.636 10.968C27.1347 10.7973 26.7027 10.5413 26.34 10.2C25.9773 9.85867 25.6947 9.43733 25.492 8.936C25.3 8.43467 25.204 7.85333 25.204 7.192C25.204 6.552 25.3 5.992 25.492 5.512C25.684 5.02133 25.9453 4.616 26.276 4.296C26.6067 3.96533 26.996 3.71467 27.444 3.544C27.892 3.37333 28.372 3.288 28.884 3.288C29.396 3.288 29.86 3.37333 30.276 3.544C30.7027 3.704 31.0653 3.93333 31.364 4.232C31.6733 4.52 31.908 4.86667 32.068 5.272C32.2387 5.67733 32.324 6.12 32.324 6.6C32.324 6.86667 32.26 7.064 32.132 7.192C32.004 7.30933 31.8173 7.38933 31.572 7.432L26.9 8.104ZM28.884 4.584C28.2973 4.584 27.8067 4.78133 27.412 5.176C27.028 5.57067 26.8253 6.136 26.804 6.872L30.74 6.312C30.6973 5.832 30.5213 5.42667 30.212 5.096C29.9027 4.75467 29.46 4.584 28.884 4.584ZM34.5215 4.216C34.4362 4.376 34.3402 4.49333 34.2335 4.568C34.1268 4.64267 33.9882 4.68 33.8175 4.68C33.6895 4.68 33.5668 4.65867 33.4495 4.616C33.3428 4.57333 33.2415 4.52533 33.1455 4.472C33.1775 4.23733 33.2095 3.98133 33.2415 3.704C33.2842 3.416 33.3268 3.12267 33.3695 2.824C33.4122 2.52533 33.4442 2.232 33.4655 1.944C33.4975 1.64533 33.5242 1.368 33.5455 1.112C33.6522 1.06933 33.7695 1.032 33.8975 1C34.0362 0.968 34.1802 0.952 34.3295 0.952C34.5642 0.952 34.7562 1.01067 34.9055 1.128C35.0655 1.23467 35.1455 1.42133 35.1455 1.688C35.1455 1.85867 35.1242 2.06133 35.0815 2.296C35.0388 2.53067 34.9855 2.77067 34.9215 3.016C34.8682 3.25067 34.8042 3.48 34.7295 3.704C34.6548 3.91733 34.5855 4.088 34.5215 4.216ZM41.5943 8.936C41.5943 9.65067 41.3276 10.2107 40.7943 10.616C40.2609 11.0213 39.4876 11.224 38.4743 11.224C38.0583 11.224 37.6743 11.192 37.3223 11.128C36.9703 11.064 36.6663 10.9733 36.4103 10.856C36.1649 10.7387 35.9729 10.6 35.8343 10.44C35.6956 10.28 35.6263 10.104 35.6263 9.912C35.6263 9.752 35.6636 9.60267 35.7383 9.464C35.8236 9.32533 35.9356 9.21333 36.0743 9.128C36.3729 9.32 36.7143 9.496 37.0983 9.656C37.4823 9.816 37.9303 9.896 38.4423 9.896C38.9223 9.896 39.2903 9.816 39.5463 9.656C39.8023 9.48533 39.9303 9.24533 39.9303 8.936C39.9303 8.66933 39.8396 8.456 39.6583 8.296C39.4876 8.136 39.2316 8.01333 38.8903 7.928L37.8023 7.64C37.0769 7.448 36.5436 7.18667 36.2023 6.856C35.8609 6.52533 35.6903 6.072 35.6903 5.496C35.6903 5.18667 35.7543 4.89867 35.8823 4.632C36.0103 4.35467 36.1969 4.12 36.4423 3.928C36.6983 3.72533 37.0129 3.57067 37.3863 3.464C37.7596 3.34667 38.1863 3.288 38.6663 3.288C39.0503 3.288 39.3969 3.32 39.7063 3.384C40.0263 3.43733 40.2983 3.51733 40.5223 3.624C40.7569 3.72 40.9383 3.84267 41.0663 3.992C41.1943 4.14133 41.2583 4.30133 41.2583 4.472C41.2583 4.64267 41.2209 4.792 41.1463 4.92C41.0716 5.03733 40.9756 5.13333 40.8583 5.208C40.6663 5.09067 40.3783 4.96267 39.9943 4.824C39.6209 4.68533 39.2156 4.616 38.7783 4.616C38.3303 4.616 37.9783 4.696 37.7223 4.856C37.4663 5.00533 37.3383 5.21867 37.3383 5.496C37.3383 5.70933 37.4076 5.88533 37.5463 6.024C37.6956 6.16267 37.9463 6.27467 38.2983 6.36L39.2263 6.6C40.0369 6.81333 40.6343 7.10133 41.0183 7.464C41.4023 7.82667 41.5943 8.31733 41.5943 8.936Z" fill="#18333E"/>
</svg>
