<svg width="118" height="14" viewBox="0 0 118 14" fill="none" xmlns="http://www.w3.org/2000/svg">
<path d="M4.112 10.12C4.82667 10.12 5.36533 9.96 5.728 9.64C6.10133 9.30933 6.288 8.888 6.288 8.376C6.288 7.928 6.144 7.56533 5.856 7.288C5.57867 7.01067 5.136 6.78133 4.528 6.6L3.136 6.184C2.45333 5.98133 1.91467 5.68267 1.52 5.288C1.136 4.89333 0.944 4.36 0.944 3.688C0.944 3.28267 1.01867 2.92 1.168 2.6C1.328 2.26933 1.552 1.992 1.84 1.768C2.128 1.544 2.46933 1.37333 2.864 1.256C3.26933 1.128 3.72267 1.064 4.224 1.064C4.65067 1.064 5.04533 1.10133 5.408 1.176C5.78133 1.24 6.10133 1.336 6.368 1.464C6.64533 1.58133 6.85867 1.71467 7.008 1.864C7.15733 2.01333 7.232 2.168 7.232 2.328C7.232 2.47733 7.19467 2.60533 7.12 2.712C7.04533 2.81867 6.94933 2.904 6.832 2.968C6.55467 2.75467 6.192 2.568 5.744 2.408C5.30667 2.248 4.816 2.168 4.272 2.168C3.64267 2.168 3.14667 2.30133 2.784 2.568C2.432 2.83467 2.256 3.208 2.256 3.688C2.256 4.06133 2.384 4.36533 2.64 4.6C2.896 4.83467 3.32267 5.03733 3.92 5.208L4.896 5.496C5.73867 5.74133 6.4 6.088 6.88 6.536C7.37067 6.97333 7.616 7.58667 7.616 8.376C7.616 9.21867 7.312 9.90133 6.704 10.424C6.096 10.9467 5.232 11.208 4.112 11.208C3.62133 11.208 3.17333 11.1653 2.768 11.08C2.37333 10.9947 2.032 10.8827 1.744 10.744C1.46667 10.6053 1.248 10.456 1.088 10.296C0.938667 10.1253 0.864 9.96 0.864 9.8C0.864 9.61867 0.917333 9.46933 1.024 9.352C1.14133 9.224 1.27467 9.13333 1.424 9.08C1.54133 9.19733 1.68533 9.32 1.856 9.448C2.02667 9.56533 2.224 9.67733 2.448 9.784C2.672 9.88 2.92267 9.96 3.2 10.024C3.47733 10.088 3.78133 10.12 4.112 10.12ZM10.5495 8.056C10.8375 9.45333 11.7548 10.152 13.3015 10.152C13.7495 10.152 14.1548 10.0773 14.5175 9.928C14.8802 9.77867 15.1682 9.61867 15.3815 9.448C15.6375 9.59733 15.7655 9.8 15.7655 10.056C15.7655 10.2053 15.6962 10.3493 15.5575 10.488C15.4295 10.6267 15.2482 10.7493 15.0135 10.856C14.7895 10.9627 14.5228 11.048 14.2135 11.112C13.9148 11.176 13.5895 11.208 13.2375 11.208C12.0002 11.208 11.0188 10.872 10.2935 10.2C9.57883 9.528 9.2215 8.54667 9.2215 7.256C9.2215 6.648 9.30683 6.10933 9.4775 5.64C9.65883 5.16 9.90417 4.75467 10.2135 4.424C10.5335 4.09333 10.9122 3.84267 11.3495 3.672C11.7868 3.49067 12.2615 3.4 12.7735 3.4C13.2535 3.4 13.6962 3.48 14.1015 3.64C14.5068 3.8 14.8535 4.02933 15.1415 4.328C15.4402 4.616 15.6695 4.96267 15.8295 5.368C16.0002 5.76267 16.0855 6.2 16.0855 6.68C16.0855 6.91467 16.0322 7.08533 15.9255 7.192C15.8188 7.288 15.6695 7.34667 15.4775 7.368L10.5495 8.056ZM12.7575 4.44C12.1068 4.44 11.5682 4.66933 11.1415 5.128C10.7148 5.576 10.4908 6.22133 10.4695 7.064L14.8695 6.456C14.8162 5.86933 14.6082 5.38933 14.2455 5.016C13.8935 4.632 13.3975 4.44 12.7575 4.44ZM20.5744 10.168C21.0224 10.168 21.3904 10.1253 21.6784 10.04C21.977 9.944 22.1904 9.85333 22.3184 9.768V7.448L20.3344 7.656C19.7797 7.70933 19.369 7.83733 19.1024 8.04C18.8357 8.232 18.7024 8.52 18.7024 8.904C18.7024 9.30933 18.857 9.624 19.1664 9.848C19.4757 10.0613 19.945 10.168 20.5744 10.168ZM20.5584 3.4C21.4864 3.4 22.2224 3.608 22.7664 4.024C23.3104 4.44 23.5824 5.096 23.5824 5.992V9.784C23.5824 10.0187 23.5344 10.2 23.4384 10.328C23.353 10.4453 23.2197 10.5573 23.0384 10.664C22.7824 10.8133 22.441 10.9413 22.0144 11.048C21.5984 11.1653 21.1184 11.224 20.5744 11.224C19.5717 11.224 18.793 11.0267 18.2384 10.632C17.6944 10.2373 17.4224 9.66667 17.4224 8.92C17.4224 8.216 17.6517 7.688 18.1104 7.336C18.569 6.97333 19.2144 6.74933 20.0464 6.664L22.3184 6.44V5.992C22.3184 5.45867 22.1584 5.06933 21.8384 4.824C21.5184 4.57867 21.0864 4.456 20.5424 4.456C20.0944 4.456 19.673 4.52 19.2784 4.648C18.8837 4.776 18.5317 4.92 18.2224 5.08C18.137 5.00533 18.057 4.92 17.9824 4.824C17.9184 4.728 17.8864 4.62133 17.8864 4.504C17.8864 4.35467 17.9237 4.232 17.9984 4.136C18.073 4.04 18.1904 3.94933 18.3504 3.864C18.6384 3.71467 18.969 3.60267 19.3424 3.528C19.7157 3.44267 20.121 3.4 20.5584 3.4ZM27.1988 10.968C27.1454 10.9893 27.0654 11.0107 26.9588 11.032C26.8521 11.064 26.7348 11.08 26.6068 11.08C26.1481 11.08 25.9188 10.888 25.9188 10.504V5.08C25.9188 4.83467 25.9614 4.64267 26.0468 4.504C26.1428 4.35467 26.2974 4.21067 26.5108 4.072C26.7881 3.89067 27.1614 3.736 27.6308 3.608C28.1108 3.46933 28.6494 3.4 29.2468 3.4C30.1001 3.4 30.5268 3.61333 30.5268 4.04C30.5268 4.14667 30.5108 4.248 30.4788 4.344C30.4468 4.42933 30.4041 4.504 30.3508 4.568C30.2441 4.54667 30.1054 4.52533 29.9348 4.504C29.7641 4.48267 29.5934 4.472 29.4227 4.472C28.9321 4.472 28.5001 4.52533 28.1268 4.632C27.7534 4.728 27.4441 4.84533 27.1988 4.984V10.968ZM35.2959 4.472C34.9332 4.472 34.5972 4.536 34.2879 4.664C33.9785 4.78133 33.7119 4.96267 33.4879 5.208C33.2639 5.44267 33.0879 5.74133 32.9599 6.104C32.8319 6.456 32.7679 6.86133 32.7679 7.32C32.7679 8.23733 32.9972 8.94133 33.4559 9.432C33.9145 9.912 34.5279 10.152 35.2959 10.152C35.7439 10.152 36.1172 10.0933 36.4159 9.976C36.7145 9.848 36.9812 9.704 37.2159 9.544C37.3332 9.608 37.4292 9.688 37.5039 9.784C37.5785 9.88 37.6159 9.99733 37.6159 10.136C37.6159 10.2853 37.5572 10.424 37.4399 10.552C37.3225 10.68 37.1572 10.792 36.9439 10.888C36.7412 10.984 36.4959 11.0587 36.2079 11.112C35.9305 11.176 35.6265 11.208 35.2959 11.208C34.7412 11.208 34.2292 11.128 33.7599 10.968C33.2905 10.808 32.8852 10.568 32.5439 10.248C32.2025 9.928 31.9359 9.528 31.7439 9.048C31.5519 8.55733 31.4559 7.98133 31.4559 7.32C31.4559 6.66933 31.5572 6.104 31.7599 5.624C31.9625 5.13333 32.2345 4.72267 32.5759 4.392C32.9172 4.06133 33.3172 3.816 33.7759 3.656C34.2452 3.48533 34.7412 3.4 35.2639 3.4C35.5945 3.4 35.8985 3.432 36.1759 3.496C36.4639 3.54933 36.7092 3.62933 36.9119 3.736C37.1145 3.84267 37.2692 3.96533 37.3759 4.104C37.4932 4.232 37.5519 4.36533 37.5519 4.504C37.5519 4.632 37.5145 4.744 37.4399 4.84C37.3652 4.936 37.2692 5.01067 37.1519 5.064C36.9172 4.904 36.6612 4.76533 36.3839 4.648C36.1065 4.53067 35.7439 4.472 35.2959 4.472ZM40.8245 10.968C40.7712 10.9893 40.6912 11.0107 40.5845 11.032C40.4778 11.064 40.3605 11.08 40.2325 11.08C39.7738 11.08 39.5445 10.888 39.5445 10.504V0.632C39.5978 0.610666 39.6778 0.589333 39.7845 0.568C39.9018 0.536 40.0245 0.52 40.1525 0.52C40.6005 0.52 40.8245 0.712 40.8245 1.096V3.976C41.0805 3.82667 41.3792 3.69333 41.7205 3.576C42.0725 3.45867 42.4672 3.4 42.9045 3.4C43.3525 3.4 43.7578 3.45867 44.1205 3.576C44.4938 3.69333 44.8138 3.87467 45.0805 4.12C45.3472 4.35467 45.5552 4.65867 45.7045 5.032C45.8538 5.39467 45.9285 5.82133 45.9285 6.312V10.968C45.8752 10.9893 45.7898 11.0107 45.6725 11.032C45.5658 11.064 45.4538 11.08 45.3365 11.08C44.8778 11.08 44.6485 10.888 44.6485 10.504V6.344C44.6485 5.704 44.4725 5.22933 44.1205 4.92C43.7685 4.61067 43.3045 4.456 42.7285 4.456C42.3552 4.456 42.0032 4.52533 41.6725 4.664C41.3525 4.792 41.0698 4.952 40.8245 5.144V10.968ZM52.8241 4.024H55.9921C56.0241 4.07733 56.0561 4.14667 56.0881 4.232C56.1201 4.31733 56.1361 4.41867 56.1361 4.536C56.1361 4.888 55.9708 5.064 55.6401 5.064H52.8401V10.968C52.7868 10.9893 52.7068 11.0107 52.6001 11.032C52.4935 11.064 52.3761 11.08 52.2481 11.08C51.7895 11.08 51.5601 10.888 51.5601 10.504V2.952C51.5601 2.01333 51.8108 1.336 52.3121 0.919999C52.8241 0.493333 53.5335 0.28 54.4401 0.28C55.0481 0.28 55.5228 0.36 55.8641 0.52C56.2161 0.679999 56.3921 0.877333 56.3921 1.112C56.3921 1.34667 56.3015 1.544 56.1201 1.704C55.9281 1.59733 55.6881 1.512 55.4001 1.448C55.1121 1.37333 54.8348 1.336 54.5681 1.336C53.9175 1.336 53.4641 1.46933 53.2081 1.736C52.9521 2.00267 52.8241 2.42933 52.8241 3.016V4.024ZM64.2984 7.304C64.2984 7.90133 64.213 8.44 64.0424 8.92C63.8717 9.4 63.6264 9.81067 63.3064 10.152C62.997 10.4933 62.6184 10.7547 62.1704 10.936C61.7224 11.1173 61.221 11.208 60.6664 11.208C60.1117 11.208 59.6104 11.1173 59.1624 10.936C58.7144 10.7547 58.3304 10.4933 58.0104 10.152C57.6904 9.81067 57.445 9.4 57.2744 8.92C57.1037 8.44 57.0184 7.90133 57.0184 7.304C57.0184 6.70667 57.1037 6.168 57.2744 5.688C57.4557 5.208 57.7064 4.79733 58.0264 4.456C58.3464 4.11467 58.7304 3.85333 59.1784 3.672C59.6264 3.49067 60.1224 3.4 60.6664 3.4C61.2104 3.4 61.7064 3.49067 62.1544 3.672C62.6024 3.85333 62.981 4.11467 63.2904 4.456C63.6104 4.79733 63.8557 5.208 64.0264 5.688C64.2077 6.168 64.2984 6.70667 64.2984 7.304ZM60.6664 4.456C59.941 4.456 59.3704 4.70667 58.9544 5.208C58.5384 5.70933 58.3304 6.408 58.3304 7.304C58.3304 8.21067 58.533 8.91467 58.9384 9.416C59.3544 9.90667 59.9304 10.152 60.6664 10.152C61.4024 10.152 61.973 9.90133 62.3784 9.4C62.7837 8.89867 62.9864 8.2 62.9864 7.304C62.9864 6.408 62.7784 5.70933 62.3624 5.208C61.957 4.70667 61.3917 4.456 60.6664 4.456ZM67.5581 10.968C67.5048 10.9893 67.4248 11.0107 67.3181 11.032C67.2115 11.064 67.0941 11.08 66.9661 11.08C66.5075 11.08 66.2781 10.888 66.2781 10.504V5.08C66.2781 4.83467 66.3208 4.64267 66.4061 4.504C66.5021 4.35467 66.6568 4.21067 66.8701 4.072C67.1475 3.89067 67.5208 3.736 67.9901 3.608C68.4701 3.46933 69.0088 3.4 69.6061 3.4C70.4595 3.4 70.8861 3.61333 70.8861 4.04C70.8861 4.14667 70.8701 4.248 70.8381 4.344C70.8061 4.42933 70.7635 4.504 70.7101 4.568C70.6035 4.54667 70.4648 4.52533 70.2941 4.504C70.1235 4.48267 69.9528 4.472 69.7821 4.472C69.2915 4.472 68.8595 4.52533 68.4861 4.632C68.1128 4.728 67.8035 4.84533 67.5581 4.984V10.968ZM78.7426 11.208C78.3693 11.208 78.0173 11.1653 77.6866 11.08C77.356 10.9947 77.084 10.8933 76.8706 10.776V13.88C76.8173 13.9013 76.7373 13.9227 76.6306 13.944C76.524 13.976 76.4066 13.992 76.2786 13.992C75.82 13.992 75.5906 13.7947 75.5906 13.4V4.952C75.5906 4.73867 75.628 4.568 75.7026 4.44C75.7773 4.312 75.932 4.17867 76.1666 4.04C76.4546 3.88 76.796 3.736 77.1906 3.608C77.596 3.46933 78.0546 3.4 78.5666 3.4C79.0893 3.4 79.58 3.47467 80.0386 3.624C80.508 3.77333 80.908 4.008 81.2386 4.328C81.58 4.63733 81.8466 5.03733 82.0386 5.528C82.2413 6.01867 82.3426 6.60533 82.3426 7.288C82.3426 7.94933 82.252 8.52533 82.0706 9.016C81.9 9.50667 81.6546 9.91733 81.3346 10.248C81.0146 10.568 80.6306 10.808 80.1826 10.968C79.7453 11.128 79.2653 11.208 78.7426 11.208ZM78.5666 10.152C79.3133 10.152 79.9106 9.928 80.3586 9.48C80.8173 9.02133 81.0466 8.29067 81.0466 7.288C81.0466 6.76533 80.9773 6.32267 80.8386 5.96C80.7106 5.59733 80.5293 5.304 80.2946 5.08C80.0706 4.856 79.8093 4.696 79.5106 4.6C79.212 4.504 78.8973 4.456 78.5666 4.456C78.1826 4.456 77.8573 4.504 77.5906 4.6C77.324 4.696 77.084 4.80267 76.8706 4.92V9.64C77.0733 9.78933 77.3133 9.912 77.5906 10.008C77.868 10.104 78.1933 10.152 78.5666 10.152ZM85.733 10.968C85.6797 10.9893 85.5997 11.0107 85.493 11.032C85.3863 11.064 85.269 11.08 85.141 11.08C84.6823 11.08 84.453 10.888 84.453 10.504V0.632C84.5063 0.610666 84.5863 0.589333 84.693 0.568C84.8103 0.536 84.9277 0.52 85.045 0.52C85.5037 0.52 85.733 0.712 85.733 1.096V10.968ZM90.9025 10.168C91.3505 10.168 91.7185 10.1253 92.0065 10.04C92.3052 9.944 92.5185 9.85333 92.6465 9.768V7.448L90.6625 7.656C90.1078 7.70933 89.6972 7.83733 89.4305 8.04C89.1638 8.232 89.0305 8.52 89.0305 8.904C89.0305 9.30933 89.1852 9.624 89.4945 9.848C89.8038 10.0613 90.2732 10.168 90.9025 10.168ZM90.8865 3.4C91.8145 3.4 92.5505 3.608 93.0945 4.024C93.6385 4.44 93.9105 5.096 93.9105 5.992V9.784C93.9105 10.0187 93.8625 10.2 93.7665 10.328C93.6812 10.4453 93.5478 10.5573 93.3665 10.664C93.1105 10.8133 92.7692 10.9413 92.3425 11.048C91.9265 11.1653 91.4465 11.224 90.9025 11.224C89.8998 11.224 89.1212 11.0267 88.5665 10.632C88.0225 10.2373 87.7505 9.66667 87.7505 8.92C87.7505 8.216 87.9798 7.688 88.4385 7.336C88.8972 6.97333 89.5425 6.74933 90.3745 6.664L92.6465 6.44V5.992C92.6465 5.45867 92.4865 5.06933 92.1665 4.824C91.8465 4.57867 91.4145 4.456 90.8705 4.456C90.4225 4.456 90.0012 4.52 89.6065 4.648C89.2118 4.776 88.8598 4.92 88.5505 5.08C88.4652 5.00533 88.3852 4.92 88.3105 4.824C88.2465 4.728 88.2145 4.62133 88.2145 4.504C88.2145 4.35467 88.2518 4.232 88.3265 4.136C88.4012 4.04 88.5185 3.94933 88.6785 3.864C88.9665 3.71467 89.2972 3.60267 89.6705 3.528C90.0438 3.44267 90.4492 3.4 90.8865 3.4ZM99.6709 4.472C99.3082 4.472 98.9722 4.536 98.6629 4.664C98.3535 4.78133 98.0869 4.96267 97.8629 5.208C97.6389 5.44267 97.4629 5.74133 97.3349 6.104C97.2069 6.456 97.1429 6.86133 97.1429 7.32C97.1429 8.23733 97.3722 8.94133 97.8309 9.432C98.2895 9.912 98.9029 10.152 99.6709 10.152C100.119 10.152 100.492 10.0933 100.791 9.976C101.09 9.848 101.356 9.704 101.591 9.544C101.708 9.608 101.804 9.688 101.879 9.784C101.954 9.88 101.991 9.99733 101.991 10.136C101.991 10.2853 101.932 10.424 101.815 10.552C101.698 10.68 101.532 10.792 101.319 10.888C101.116 10.984 100.871 11.0587 100.583 11.112C100.306 11.176 100.002 11.208 99.6709 11.208C99.1162 11.208 98.6042 11.128 98.1349 10.968C97.6655 10.808 97.2602 10.568 96.9189 10.248C96.5775 9.928 96.3109 9.528 96.1189 9.048C95.9269 8.55733 95.8309 7.98133 95.8309 7.32C95.8309 6.66933 95.9322 6.104 96.1349 5.624C96.3375 5.13333 96.6095 4.72267 96.9509 4.392C97.2922 4.06133 97.6922 3.816 98.1509 3.656C98.6202 3.48533 99.1162 3.4 99.6389 3.4C99.9695 3.4 100.274 3.432 100.551 3.496C100.839 3.54933 101.084 3.62933 101.287 3.736C101.49 3.84267 101.644 3.96533 101.751 4.104C101.868 4.232 101.927 4.36533 101.927 4.504C101.927 4.632 101.89 4.744 101.815 4.84C101.74 4.936 101.644 5.01067 101.527 5.064C101.292 4.904 101.036 4.76533 100.759 4.648C100.482 4.53067 100.119 4.472 99.6709 4.472ZM104.612 8.056C104.9 9.45333 105.817 10.152 107.364 10.152C107.812 10.152 108.217 10.0773 108.58 9.928C108.943 9.77867 109.231 9.61867 109.444 9.448C109.7 9.59733 109.828 9.8 109.828 10.056C109.828 10.2053 109.759 10.3493 109.62 10.488C109.492 10.6267 109.311 10.7493 109.076 10.856C108.852 10.9627 108.585 11.048 108.276 11.112C107.977 11.176 107.652 11.208 107.3 11.208C106.063 11.208 105.081 10.872 104.356 10.2C103.641 9.528 103.284 8.54667 103.284 7.256C103.284 6.648 103.369 6.10933 103.54 5.64C103.721 5.16 103.967 4.75467 104.276 4.424C104.596 4.09333 104.975 3.84267 105.412 3.672C105.849 3.49067 106.324 3.4 106.836 3.4C107.316 3.4 107.759 3.48 108.164 3.64C108.569 3.8 108.916 4.02933 109.204 4.328C109.503 4.616 109.732 4.96267 109.892 5.368C110.063 5.76267 110.148 6.2 110.148 6.68C110.148 6.91467 110.095 7.08533 109.988 7.192C109.881 7.288 109.732 7.34667 109.54 7.368L104.612 8.056ZM106.82 4.44C106.169 4.44 105.631 4.66933 105.204 5.128C104.777 5.576 104.553 6.22133 104.532 7.064L108.932 6.456C108.879 5.86933 108.671 5.38933 108.308 5.016C107.956 4.632 107.46 4.44 106.82 4.44ZM117.307 9.032C117.307 9.71467 117.056 10.248 116.555 10.632C116.053 11.016 115.328 11.208 114.379 11.208C113.973 11.208 113.6 11.1707 113.259 11.096C112.917 11.032 112.624 10.9467 112.379 10.84C112.144 10.7227 111.957 10.5947 111.819 10.456C111.691 10.3067 111.627 10.1573 111.627 10.008C111.627 9.88 111.659 9.75733 111.723 9.64C111.797 9.52267 111.904 9.42133 112.043 9.336C112.331 9.54933 112.667 9.74133 113.051 9.912C113.435 10.072 113.872 10.152 114.363 10.152C115.472 10.152 116.027 9.77867 116.027 9.032C116.027 8.424 115.659 8.02933 114.923 7.848L113.595 7.496C112.944 7.32533 112.469 7.08 112.171 6.76C111.872 6.42933 111.723 6.008 111.723 5.496C111.723 5.21867 111.776 4.952 111.883 4.696C112 4.44 112.176 4.216 112.411 4.024C112.645 3.832 112.933 3.68267 113.275 3.576C113.627 3.45867 114.037 3.4 114.507 3.4C115.253 3.4 115.856 3.512 116.315 3.736C116.773 3.94933 117.003 4.2 117.003 4.488C117.003 4.62667 116.965 4.74933 116.891 4.856C116.827 4.96267 116.736 5.04267 116.619 5.096C116.427 4.968 116.155 4.82933 115.803 4.68C115.451 4.53067 115.035 4.456 114.555 4.456C114.075 4.456 113.691 4.54667 113.403 4.728C113.125 4.90933 112.987 5.16533 112.987 5.496C112.987 5.74133 113.067 5.94933 113.227 6.12C113.387 6.29067 113.653 6.41867 114.027 6.504L115.131 6.776C115.856 6.95733 116.4 7.22933 116.763 7.592C117.125 7.944 117.307 8.424 117.307 9.032Z" fill="#18333E"/>
</svg>
