<svg width="59" height="15" viewBox="0 0 59 15" fill="none" xmlns="http://www.w3.org/2000/svg">
<path d="M4.08 9.816C4.752 9.816 5.248 9.67733 5.568 9.4C5.888 9.12267 6.048 8.76533 6.048 8.328C6.048 7.944 5.92533 7.63467 5.68 7.4C5.43467 7.16533 5.04533 6.968 4.512 6.808L3.312 6.44C2.93867 6.32267 2.59733 6.18933 2.288 6.04C1.98933 5.88 1.73333 5.69867 1.52 5.496C1.30667 5.28267 1.14133 5.03733 1.024 4.76C0.917333 4.472 0.864 4.14133 0.864 3.768C0.864 2.92533 1.17333 2.264 1.792 1.784C2.42133 1.29333 3.26933 1.048 4.336 1.048C4.77333 1.048 5.17867 1.08533 5.552 1.16C5.92533 1.224 6.24533 1.32 6.512 1.448C6.78933 1.56533 7.00267 1.70933 7.152 1.88C7.312 2.04 7.392 2.216 7.392 2.408C7.392 2.58933 7.344 2.74933 7.248 2.888C7.16267 3.016 7.056 3.12267 6.928 3.208C6.66133 3.00533 6.30933 2.83467 5.872 2.696C5.44533 2.54667 4.97067 2.472 4.448 2.472C3.86133 2.472 3.408 2.58933 3.088 2.824C2.768 3.05867 2.608 3.37333 2.608 3.768C2.608 4.088 2.72 4.34933 2.944 4.552C3.168 4.744 3.536 4.91467 4.048 5.064L4.976 5.336C5.872 5.60267 6.56533 5.97067 7.056 6.44C7.55733 6.89867 7.808 7.528 7.808 8.328C7.808 8.75467 7.72267 9.14933 7.552 9.512C7.392 9.864 7.15733 10.168 6.848 10.424C6.53867 10.68 6.14933 10.8773 5.68 11.016C5.22133 11.1547 4.69867 11.224 4.112 11.224C3.62133 11.224 3.17333 11.1813 2.768 11.096C2.36267 11.0107 2.01067 10.8987 1.712 10.76C1.424 10.6213 1.2 10.4613 1.04 10.28C0.88 10.0987 0.8 9.90667 0.8 9.704C0.8 9.49067 0.864 9.30933 0.992 9.16C1.12 9.01067 1.26933 8.89867 1.44 8.824C1.696 9.05867 2.04267 9.28267 2.48 9.496C2.928 9.70933 3.46133 9.816 4.08 9.816ZM11.348 10.968C11.2733 11 11.1667 11.0267 11.028 11.048C10.9 11.08 10.7507 11.096 10.58 11.096C10.2707 11.096 10.0413 11.0373 9.892 10.92C9.74267 10.8027 9.668 10.6053 9.668 10.328V3.56C9.75333 3.53867 9.86 3.512 9.988 3.48C10.1267 3.448 10.2813 3.432 10.452 3.432C10.7613 3.432 10.9853 3.49067 11.124 3.608C11.2733 3.72533 11.348 3.928 11.348 4.216V10.968ZM9.492 1.208C9.492 0.930666 9.588 0.701333 9.78 0.52C9.972 0.327999 10.2173 0.231999 10.516 0.231999C10.8147 0.231999 11.0547 0.327999 11.236 0.52C11.4173 0.701333 11.508 0.930666 11.508 1.208C11.508 1.48533 11.4173 1.72 11.236 1.912C11.0547 2.09333 10.8147 2.184 10.516 2.184C10.2173 2.184 9.972 2.09333 9.78 1.912C9.588 1.72 9.492 1.48533 9.492 1.208ZM18.5313 10.296C18.3286 10.424 18.0779 10.5307 17.7793 10.616C17.4913 10.7013 17.1446 10.744 16.7393 10.744C16.2699 10.744 15.8219 10.68 15.3953 10.552C14.9793 10.4133 14.6113 10.2 14.2913 9.912C13.9713 9.61333 13.7153 9.22933 13.5233 8.76C13.3419 8.29067 13.2513 7.71467 13.2513 7.032C13.2513 6.41333 13.3419 5.87467 13.5233 5.416C13.7153 4.94667 13.9766 4.55733 14.3073 4.248C14.6486 3.928 15.0486 3.688 15.5073 3.528C15.9766 3.368 16.4939 3.288 17.0593 3.288C17.5819 3.288 18.0619 3.35733 18.4993 3.496C18.9473 3.624 19.3099 3.77867 19.5873 3.96C19.7686 4.07733 19.9073 4.21067 20.0033 4.36C20.1099 4.50933 20.1633 4.69067 20.1633 4.904V11.208C20.1633 11.7413 20.0673 12.2 19.8753 12.584C19.6939 12.968 19.4379 13.2773 19.1073 13.512C18.7873 13.7573 18.4033 13.9333 17.9553 14.04C17.5073 14.1573 17.0273 14.216 16.5153 14.216C15.9713 14.216 15.5019 14.1627 15.1073 14.056C14.7126 13.9493 14.4246 13.8427 14.2433 13.736C13.9126 13.5333 13.7473 13.2667 13.7473 12.936C13.7473 12.7547 13.7846 12.6 13.8593 12.472C13.9339 12.3547 14.0299 12.2587 14.1473 12.184C14.3926 12.3547 14.7179 12.5093 15.1233 12.648C15.5286 12.7867 15.9606 12.856 16.4193 12.856C17.0913 12.856 17.6086 12.7173 17.9713 12.44C18.3446 12.1733 18.5313 11.736 18.5313 11.128V10.296ZM16.9793 9.432C17.3419 9.432 17.6459 9.37867 17.8913 9.272C18.1366 9.16533 18.3446 9.03733 18.5153 8.888V5.016C18.3553 4.92 18.1579 4.83467 17.9233 4.76C17.6886 4.67467 17.4113 4.632 17.0913 4.632C16.4406 4.632 15.9179 4.82933 15.5233 5.224C15.1286 5.61867 14.9313 6.216 14.9313 7.016C14.9313 7.45333 14.9846 7.82667 15.0913 8.136C15.1979 8.44533 15.3419 8.696 15.5233 8.888C15.7046 9.08 15.9179 9.21867 16.1633 9.304C16.4193 9.38933 16.6913 9.432 16.9793 9.432ZM27.41 6.152C27.41 5.62933 27.2607 5.24533 26.962 5C26.674 4.75467 26.2793 4.632 25.778 4.632C25.4047 4.632 25.0687 4.68 24.77 4.776C24.482 4.872 24.2313 4.97867 24.018 5.096V10.968C23.9433 11 23.8367 11.0267 23.698 11.048C23.57 11.08 23.426 11.096 23.266 11.096C22.9567 11.096 22.7273 11.0373 22.578 10.92C22.4287 10.8027 22.354 10.6053 22.354 10.328V5.048C22.354 4.80267 22.402 4.60533 22.498 4.456C22.594 4.30667 22.754 4.15733 22.978 4.008C23.2767 3.82667 23.666 3.66133 24.146 3.512C24.626 3.36267 25.17 3.288 25.778 3.288C26.8127 3.288 27.6233 3.52267 28.21 3.992C28.7967 4.45067 29.09 5.14933 29.09 6.088V10.968C29.0153 11 28.9087 11.0267 28.77 11.048C28.6313 11.08 28.482 11.096 28.322 11.096C28.0127 11.096 27.7833 11.0373 27.634 10.92C27.4847 10.8027 27.41 10.6053 27.41 10.328V6.152ZM43.6786 6.136C43.6786 6.968 43.556 7.704 43.3106 8.344C43.076 8.97333 42.7453 9.50133 42.3186 9.928C41.892 10.3547 41.3906 10.68 40.8146 10.904C40.2386 11.1173 39.6093 11.224 38.9266 11.224C38.244 11.224 37.6093 11.1173 37.0226 10.904C36.4466 10.68 35.9453 10.3547 35.5186 9.928C35.1026 9.50133 34.772 8.97333 34.5266 8.344C34.292 7.704 34.1746 6.968 34.1746 6.136C34.1746 5.304 34.2973 4.57333 34.5426 3.944C34.788 3.31467 35.124 2.78667 35.5506 2.36C35.9773 1.92267 36.4786 1.59733 37.0546 1.384C37.6413 1.16 38.2653 1.048 38.9266 1.048C39.5986 1.048 40.2226 1.16 40.7986 1.384C41.3746 1.59733 41.876 1.92267 42.3026 2.36C42.7293 2.78667 43.0653 3.31467 43.3106 3.944C43.556 4.57333 43.6786 5.304 43.6786 6.136ZM41.9346 6.136C41.9346 4.94133 41.6626 4.03467 41.1186 3.416C40.5746 2.78667 39.844 2.472 38.9266 2.472C38.0306 2.472 37.3053 2.78667 36.7506 3.416C36.2066 4.04533 35.9346 4.952 35.9346 6.136C35.9346 7.33067 36.2066 8.24267 36.7506 8.872C37.2946 9.50133 38.02 9.816 38.9266 9.816C39.844 9.816 40.5746 9.50133 41.1186 8.872C41.6626 8.24267 41.9346 7.33067 41.9346 6.136ZM45.5884 3.528C45.663 3.50667 45.7697 3.48533 45.9084 3.464C46.047 3.432 46.1964 3.416 46.3564 3.416C46.6657 3.416 46.8897 3.47467 47.0284 3.592C47.1777 3.70933 47.2524 3.912 47.2524 4.2V8.152C47.2524 8.77067 47.4124 9.21333 47.7324 9.48C48.063 9.736 48.5164 9.864 49.0924 9.864C49.4657 9.864 49.7804 9.82667 50.0364 9.752C50.2924 9.67733 50.495 9.59733 50.6444 9.512V3.528C50.7297 3.50667 50.8364 3.48533 50.9644 3.464C51.103 3.432 51.2524 3.416 51.4124 3.416C51.7217 3.416 51.951 3.47467 52.1004 3.592C52.2497 3.70933 52.3244 3.912 52.3244 4.2V9.592C52.3244 9.82667 52.287 10.0187 52.2124 10.168C52.1377 10.3173 51.9884 10.4613 51.7644 10.6C51.487 10.76 51.119 10.904 50.6604 11.032C50.2124 11.16 49.6844 11.224 49.0764 11.224C47.9777 11.224 47.119 10.984 46.5004 10.504C45.8924 10.0133 45.5884 9.24 45.5884 8.184V3.528ZM56.2059 8.808C56.2059 9.192 56.3179 9.464 56.5419 9.624C56.7659 9.784 57.0805 9.864 57.4859 9.864C57.6672 9.864 57.8592 9.83733 58.0619 9.784C58.2645 9.73067 58.4405 9.66667 58.5899 9.592C58.6645 9.67733 58.7285 9.77333 58.7819 9.88C58.8459 9.98667 58.8779 10.1147 58.8779 10.264C58.8779 10.5413 58.7339 10.7707 58.4459 10.952C58.1685 11.1333 57.7419 11.224 57.1659 11.224C56.3659 11.224 55.7259 11.048 55.2459 10.696C54.7765 10.3333 54.5419 9.74133 54.5419 8.92V1.448C54.6165 1.42667 54.7232 1.4 54.8619 1.368C55.0005 1.336 55.1499 1.32 55.3099 1.32C55.6192 1.32 55.8432 1.37867 55.9819 1.496C56.1312 1.61333 56.2059 1.81067 56.2059 2.088V3.672H58.6859C58.7285 3.736 58.7659 3.82667 58.7979 3.944C58.8405 4.06133 58.8619 4.184 58.8619 4.312C58.8619 4.77067 58.6645 5 58.2699 5H56.2059V8.808Z" fill="#18333E"/>
</svg>
