<svg width="47" height="12" viewBox="0 0 47 12" fill="none" xmlns="http://www.w3.org/2000/svg">
<path d="M5.088 2.696V10.968C5.01333 11 4.90133 11.0267 4.752 11.048C4.61333 11.08 4.464 11.096 4.304 11.096C3.97333 11.096 3.73867 11.0373 3.6 10.92C3.46133 10.792 3.392 10.584 3.392 10.296V2.696H0.56C0.506667 2.62133 0.458667 2.52533 0.416 2.408C0.384 2.29067 0.368 2.15733 0.368 2.008C0.368 1.77333 0.421333 1.59733 0.528 1.48C0.645333 1.352 0.8 1.288 0.992 1.288H7.952C7.99467 1.352 8.032 1.44267 8.064 1.56C8.10667 1.67733 8.128 1.80533 8.128 1.944C8.128 2.44533 7.92 2.696 7.504 2.696H5.088ZM14.7076 6.328C14.7076 5.74133 14.5476 5.31467 14.2276 5.048C13.9183 4.77067 13.5076 4.632 12.9956 4.632C12.6543 4.632 12.3396 4.69067 12.0516 4.808C11.7743 4.91467 11.529 5.048 11.3156 5.208V10.968C11.241 11 11.1343 11.0267 10.9956 11.048C10.8676 11.08 10.7236 11.096 10.5636 11.096C10.2543 11.096 10.025 11.0373 9.87563 10.92C9.72629 10.8027 9.65163 10.6053 9.65163 10.328V0.615999C9.72629 0.594666 9.83296 0.568 9.97163 0.535999C10.1103 0.504 10.2596 0.488 10.4196 0.488C10.729 0.488 10.953 0.546666 11.0916 0.664C11.241 0.781333 11.3156 0.978666 11.3156 1.256V3.784C11.561 3.656 11.8436 3.544 12.1636 3.448C12.4943 3.34133 12.8623 3.288 13.2676 3.288C14.1956 3.288 14.9423 3.53333 15.5076 4.024C16.0836 4.51467 16.3716 5.26133 16.3716 6.264V10.968C16.297 11 16.1903 11.0267 16.0516 11.048C15.913 11.08 15.769 11.096 15.6196 11.096C15.2996 11.096 15.065 11.0373 14.9156 10.92C14.777 10.8027 14.7076 10.6053 14.7076 10.328V6.328ZM19.8688 8.104C20.0181 8.712 20.3061 9.16533 20.7328 9.464C21.1701 9.752 21.7248 9.896 22.3968 9.896C22.8448 9.896 23.2554 9.82667 23.6288 9.688C24.0021 9.54933 24.3008 9.4 24.5248 9.24C24.8234 9.41067 24.9728 9.65067 24.9728 9.96C24.9728 10.1413 24.9034 10.312 24.7648 10.472C24.6261 10.6213 24.4341 10.7547 24.1888 10.872C23.9541 10.9787 23.6714 11.064 23.3408 11.128C23.0208 11.192 22.6741 11.224 22.3008 11.224C21.6821 11.224 21.1168 11.1387 20.6048 10.968C20.1034 10.7973 19.6714 10.5413 19.3088 10.2C18.9461 9.85867 18.6634 9.43733 18.4608 8.936C18.2688 8.43467 18.1728 7.85333 18.1728 7.192C18.1728 6.552 18.2688 5.992 18.4608 5.512C18.6528 5.02133 18.9141 4.616 19.2448 4.296C19.5754 3.96533 19.9648 3.71467 20.4128 3.544C20.8608 3.37333 21.3408 3.288 21.8528 3.288C22.3648 3.288 22.8288 3.37333 23.2448 3.544C23.6714 3.704 24.0341 3.93333 24.3328 4.232C24.6421 4.52 24.8768 4.86667 25.0368 5.272C25.2074 5.67733 25.2928 6.12 25.2928 6.6C25.2928 6.86667 25.2288 7.064 25.1008 7.192C24.9728 7.30933 24.7861 7.38933 24.5408 7.432L19.8688 8.104ZM21.8528 4.584C21.2661 4.584 20.7754 4.78133 20.3808 5.176C19.9968 5.57067 19.7941 6.136 19.7728 6.872L23.7088 6.312C23.6661 5.832 23.4901 5.42667 23.1808 5.096C22.8714 4.75467 22.4288 4.584 21.8528 4.584ZM36.3223 5.992C36.3223 5.52267 36.1889 5.18133 35.9223 4.968C35.6663 4.744 35.3143 4.632 34.8663 4.632C34.5676 4.632 34.2796 4.69067 34.0023 4.808C33.7356 4.91467 33.4903 5.064 33.2663 5.256C33.2876 5.34133 33.3036 5.432 33.3143 5.528C33.3249 5.624 33.3303 5.72 33.3303 5.816V10.968C33.2556 11 33.1489 11.0267 33.0103 11.048C32.8716 11.08 32.7276 11.096 32.5783 11.096C32.2689 11.096 32.0396 11.0373 31.8903 10.92C31.7409 10.8027 31.6663 10.6053 31.6663 10.328V5.992C31.6663 5.52267 31.5329 5.18133 31.2663 4.968C30.9996 4.744 30.6423 4.632 30.1943 4.632C29.8956 4.632 29.6129 4.68 29.3463 4.776C29.0796 4.872 28.8556 4.97867 28.6743 5.096V10.968C28.5996 11 28.4929 11.0267 28.3543 11.048C28.2263 11.08 28.0823 11.096 27.9223 11.096C27.6129 11.096 27.3836 11.0373 27.2343 10.92C27.0849 10.8027 27.0103 10.6053 27.0103 10.328V5.048C27.0103 4.80267 27.0583 4.60533 27.1543 4.456C27.2503 4.30667 27.4103 4.15733 27.6343 4.008C27.9436 3.80533 28.3329 3.63467 28.8023 3.496C29.2716 3.35733 29.7463 3.288 30.2263 3.288C30.7276 3.288 31.1756 3.35733 31.5703 3.496C31.9756 3.63467 32.3063 3.83733 32.5623 4.104C32.8609 3.86933 33.2129 3.67733 33.6183 3.528C34.0343 3.368 34.5143 3.288 35.0583 3.288C35.4743 3.288 35.8636 3.34133 36.2263 3.448C36.5889 3.544 36.8983 3.704 37.1543 3.928C37.4209 4.14133 37.6289 4.41333 37.7783 4.744C37.9276 5.07467 38.0023 5.46933 38.0023 5.928V10.968C37.9169 11 37.8049 11.0267 37.6663 11.048C37.5383 11.08 37.3943 11.096 37.2343 11.096C36.9249 11.096 36.6956 11.0373 36.5463 10.92C36.3969 10.8027 36.3223 10.6053 36.3223 10.328V5.992ZM41.5094 8.104C41.6587 8.712 41.9467 9.16533 42.3734 9.464C42.8107 9.752 43.3654 9.896 44.0374 9.896C44.4854 9.896 44.896 9.82667 45.2694 9.688C45.6427 9.54933 45.9414 9.4 46.1654 9.24C46.464 9.41067 46.6134 9.65067 46.6134 9.96C46.6134 10.1413 46.544 10.312 46.4054 10.472C46.2667 10.6213 46.0747 10.7547 45.8294 10.872C45.5947 10.9787 45.312 11.064 44.9814 11.128C44.6614 11.192 44.3147 11.224 43.9414 11.224C43.3227 11.224 42.7574 11.1387 42.2454 10.968C41.744 10.7973 41.312 10.5413 40.9494 10.2C40.5867 9.85867 40.304 9.43733 40.1014 8.936C39.9094 8.43467 39.8134 7.85333 39.8134 7.192C39.8134 6.552 39.9094 5.992 40.1014 5.512C40.2934 5.02133 40.5547 4.616 40.8854 4.296C41.216 3.96533 41.6054 3.71467 42.0534 3.544C42.5014 3.37333 42.9814 3.288 43.4934 3.288C44.0054 3.288 44.4694 3.37333 44.8854 3.544C45.312 3.704 45.6747 3.93333 45.9734 4.232C46.2827 4.52 46.5174 4.86667 46.6774 5.272C46.848 5.67733 46.9334 6.12 46.9334 6.6C46.9334 6.86667 46.8694 7.064 46.7414 7.192C46.6134 7.30933 46.4267 7.38933 46.1814 7.432L41.5094 8.104ZM43.4934 4.584C42.9067 4.584 42.416 4.78133 42.0214 5.176C41.6374 5.57067 41.4347 6.136 41.4134 6.872L45.3494 6.312C45.3067 5.832 45.1307 5.42667 44.8214 5.096C44.512 4.75467 44.0694 4.584 43.4934 4.584Z" fill="#18333E"/>
</svg>
